<?xml version="1.0" encoding="UTF-8" standalone="no"?>
<!-- Created with Inkscape (http://www.inkscape.org/) -->

<svg
   width="500mm"
   height="500mm"
   viewBox="0 0 500 500"
   version="1.1"
   id="svg1"
   xml:space="preserve"
   sodipodi:docname="bishop_b.svg"
   inkscape:version="1.3.2 (091e20e, 2023-11-25, custom)"
   xmlns:inkscape="http://www.inkscape.org/namespaces/inkscape"
   xmlns:sodipodi="http://sodipodi.sourceforge.net/DTD/sodipodi-0.dtd"
   xmlns="http://www.w3.org/2000/svg"
   xmlns:svg="http://www.w3.org/2000/svg"><sodipodi:namedview
     id="namedview1"
     pagecolor="#ffffff"
     bordercolor="#666666"
     borderopacity="1.0"
     inkscape:showpageshadow="2"
     inkscape:pageopacity="0.0"
     inkscape:pagecheckerboard="0"
     inkscape:deskcolor="#d1d1d1"
     inkscape:document-units="mm"
     inkscape:zoom="0.25"
     inkscape:cx="-840"
     inkscape:cy="2132"
     inkscape:window-width="3511"
     inkscape:window-height="2126"
     inkscape:window-x="318"
     inkscape:window-y="-11"
     inkscape:window-maximized="1"
     inkscape:current-layer="layer1" /><defs
     id="defs1" /><g
     inkscape:label="Layer 1"
     inkscape:groupmode="layer"
     id="layer1"><path
       style="fill:#ff0101;fill-opacity:1;stroke:#000000;stroke-width:15;stroke-linecap:round;stroke-linejoin:round;stroke-dasharray:none;stroke-opacity:1"
       d="m 163.50192,375.55882 c -11.07379,0.11373 -19.92186,0.38919 -23.82176,0.92237 -31.65968,4.32578 -45.045093,13.3225 -53.74724,29.22889 -7.871381,14.38792 -5.99588,64.07287 -5.99588,64.07287 h 170.06292 170.06301 c 0,0 1.87553,-49.68495 -5.99586,-64.07287 -8.70216,-15.90639 -22.08756,-24.90311 -53.74727,-29.22889 -65.55607,-0.14294 -131.22546,-1.30457 -196.81792,-0.92237 z"
       id="path3" /><path
       id="path2-4"
       style="fill:#ff0101;fill-opacity:1;stroke:#000000;stroke-width:14.385;stroke-linecap:round;stroke-linejoin:round;stroke-dasharray:none;stroke-opacity:1"
       d="m 243.91741,233.55629 c 8.81207,-26.26447 32.03157,-85.33677 48.43012,-109.56438 l -1.3e-4,-3e-5 c 44.34683,52.60887 98.96579,150.091 43.47642,225.3077 -113.78956,-0.0751 -66.81056,-0.0326 -171.64986,3e-5 -64.889611,-89.19975 22.35936,-208.54276 65.71278,-248.95793 -11.49868,-6.707922 -18.59876,-18.653227 -18.62056,-31.546396 2.3e-4,-20.445085 17.30869,-37.018974 38.65965,-37.018929 21.35076,2.25e-4 38.65891,16.574035 38.6599,37.019119 -0.0401,13.665214 -7.93862,26.19793 -20.54603,32.600596 -27.35803,39.50146 -58.56743,82.82936 -61.72323,132.04656 m 0,0 37.60391,0.10129"
       sodipodi:nodetypes="ccccccccccccc" /></g></svg>
