<?xml version="1.0" encoding="UTF-8" standalone="no"?>
<!-- Created with Inkscape (http://www.inkscape.org/) -->

<svg
   width="500mm"
   height="500mm"
   viewBox="0 0 500 500"
   version="1.1"
   id="svg1"
   xml:space="preserve"
   sodipodi:docname="king_b.svg"
   inkscape:version="1.3.2 (091e20e, 2023-11-25, custom)"
   xmlns:inkscape="http://www.inkscape.org/namespaces/inkscape"
   xmlns:sodipodi="http://sodipodi.sourceforge.net/DTD/sodipodi-0.dtd"
   xmlns="http://www.w3.org/2000/svg"
   xmlns:svg="http://www.w3.org/2000/svg"><sodipodi:namedview
     id="namedview1"
     pagecolor="#ffffff"
     bordercolor="#000000"
     borderopacity="0.25"
     inkscape:showpageshadow="2"
     inkscape:pageopacity="0.0"
     inkscape:pagecheckerboard="0"
     inkscape:deskcolor="#d1d1d1"
     inkscape:document-units="mm"
     inkscape:zoom="0.2973261"
     inkscape:cx="2389.6321"
     inkscape:cy="2781.4578"
     inkscape:window-width="3511"
     inkscape:window-height="2126"
     inkscape:window-x="318"
     inkscape:window-y="-11"
     inkscape:window-maximized="1"
     inkscape:current-layer="layer1" /><defs
     id="defs1" /><g
     inkscape:label="Layer 1"
     inkscape:groupmode="layer"
     id="layer1"><path
       style="fill:#ff0000;fill-opacity:1;stroke:#000000;stroke-width:15;stroke-linecap:round;stroke-linejoin:round;stroke-dasharray:none;stroke-opacity:1"
       d="m 163.5019,376.81646 c -11.07379,0.11373 -19.92185,0.38919 -23.82175,0.92237 -31.65968,4.32578 -45.04509,13.3225 -53.74724,29.22889 -7.87138,14.38792 -5.99588,64.07287 -5.99588,64.07287 h 170.06292 170.06301 c 0,0 1.87553,-49.68495 -5.99586,-64.07287 -8.70216,-15.90639 -22.08756,-24.90311 -53.74727,-29.22889 -65.55607,-0.14294 -131.22546,-1.30457 -196.81793,-0.92237 z"
       id="path3" /><path
       id="path2"
       style="fill:#ff0000;stroke:#000000;stroke-width:15;stroke-dasharray:none;stroke-opacity:1;fill-opacity:1"
       d="M 223.42512 31.569649 L 223.42512 68.354484 L 206.85611 68.354484 L 188.93317 68.354484 L 188.93317 89.861698 L 188.93317 111.36943 L 205.52027 111.36943 C 214.64312 111.36943 222.70014 112.32911 223.42512 113.50212 C 224.60867 115.41717 216.30387 153.08678 213.80762 157.12581 C 213.24667 158.03344 209.83977 157.30594 206.23702 155.50937 C 186.26722 145.5508 141.65018 139.98833 119.20564 144.65887 C 100.07265 148.64035 87.29477 155.42636 74.115889 168.60521 C 59.362906 183.35823 52.943973 196.27789 48.922078 219.31581 C 42.291852 257.29462 52.00229 279.62654 94.327059 323.73993 C 106.45075 341.47179 124.20027 356.65036 137.45259 377.58625 L 355.02587 377.58625 C 371.9375 362.21489 368.38499 363.72699 394.93507 329.32202 C 433.85771 278.88399 447.02336 268.62161 447.02336 237.23772 C 447.02336 198.97893 428.17327 166.35909 397.38918 151.34528 C 370.66183 138.31001 324.07767 140.95334 284.3506 157.75936 C 281.27094 159.06217 279.6806 155.37811 275.52168 137.30583 C 272.73179 125.18249 270.99036 114.3869 271.65215 113.31608 C 272.31396 112.24528 280.31942 111.36943 289.44228 111.36943 L 306.02938 111.36943 L 306.02938 89.861698 L 306.02938 68.354484 L 288.10645 68.354484 L 270.18351 68.354484 C 270.46785 55.977334 270.18351 31.569649 270.18351 31.569649 L 223.42512 31.569649 z M 333.29387 209.40066 C 345.12615 209.48466 360.18667 217.58463 364.68523 226.28386 C 373.15005 242.65303 367.06357 259.71795 344.26529 283.53411 C 340.97943 286.96669 333.13994 295.3374 326.84413 302.13556 C 315.59415 314.28318 315.15869 314.49605 301.55265 314.49605 C 293.93828 314.49605 286.99159 313.77909 286.11535 312.90286 C 285.23911 312.02664 284.52217 292.68489 284.52217 269.92151 L 284.52217 228.53334 L 293.84925 222.3611 C 304.61387 215.2374 322.60941 209.32475 333.29387 209.40066 z M 163.11821 209.40737 C 173.80266 209.33146 191.79821 215.24467 202.56283 222.36834 L 211.88991 228.54057 L 211.88991 269.92874 C 211.88991 292.6921 211.17296 312.03387 210.29672 312.9101 C 209.4205 313.78633 202.47327 314.50277 194.85891 314.50277 C 181.25288 314.50277 180.81791 314.29041 169.56794 302.1428 C 163.27215 295.34463 155.43263 286.97393 152.14679 283.54135 C 129.34853 259.7252 123.26151 242.66024 131.72633 226.2911 C 136.22488 217.59188 151.28594 209.49137 163.11821 209.40737 z " /></g></svg>
