<?xml version="1.0" encoding="UTF-8" standalone="no"?>
<!-- Created with Inkscape (http://www.inkscape.org/) -->

<svg
   width="500mm"
   height="500mm"
   viewBox="0 0 500 500"
   version="1.1"
   id="svg1"
   xml:space="preserve"
   sodipodi:docname="knight_b.svg"
   inkscape:version="1.3.2 (091e20e, 2023-11-25, custom)"
   xmlns:inkscape="http://www.inkscape.org/namespaces/inkscape"
   xmlns:sodipodi="http://sodipodi.sourceforge.net/DTD/sodipodi-0.dtd"
   xmlns="http://www.w3.org/2000/svg"
   xmlns:svg="http://www.w3.org/2000/svg"><sodipodi:namedview
     id="namedview1"
     pagecolor="#ffffff"
     bordercolor="#000000"
     borderopacity="0.25"
     inkscape:showpageshadow="2"
     inkscape:pageopacity="0.0"
     inkscape:pagecheckerboard="true"
     inkscape:deskcolor="#d1d1d1"
     inkscape:document-units="mm"
     inkscape:zoom="0.4204826"
     inkscape:cx="329.38343"
     inkscape:cy="1652.8627"
     inkscape:window-width="3511"
     inkscape:window-height="2126"
     inkscape:window-x="318"
     inkscape:window-y="-11"
     inkscape:window-maximized="1"
     inkscape:current-layer="layer1" /><defs
     id="defs1" /><g
     inkscape:label="Layer 1"
     inkscape:groupmode="layer"
     id="layer1"><path
       style="fill:#ff0000;fill-opacity:1;stroke:#ff0000;stroke-width:10.1098;stroke-dasharray:none;stroke-opacity:0.99000001"
       d="m 267.70284,372.51828 c -22.26181,-0.21392 -58.94047,-0.33376 -81.50812,-0.26629 -22.56764,0.0675 -41.03205,0.0629 -41.03201,-0.0103 1.8e-4,-0.27097 6.00664,-11.43407 9.22992,-17.15394 11.28669,-20.02881 22.26296,-35.93672 32.65887,-47.33253 1.54706,-1.69584 6.21357,-6.06967 10.37004,-9.71956 25.66338,-22.5358 35.80997,-38.40454 35.80997,-56.00492 0,-4.73212 -0.71082,-8.49511 -2.93532,-15.53927 -2.85083,-9.0275 -6.35354,-15.83967 -8.14448,-15.83967 -1.11687,0 -3.59201,2.26882 -15.61537,14.31384 -22.95546,22.99679 -32.51244,28.50166 -56.48083,32.53324 -10.60129,1.78318 -14.4831,2.8188 -19.10937,5.09813 -5.23334,2.57841 -9.893,7.4364 -15.8129,16.48593 -5.35042,8.17897 -11.0116,14.54632 -13.65262,15.3556 -4.438981,1.36021 -20.733135,-2.10995 -33.492182,-7.13289 -18.798859,-7.40064 -26.462045,-15.89799 -26.462045,-29.34256 0,-9.1901 2.604652,-14.08694 23.3503,-43.89942 24.407771,-35.07513 31.224116,-47.60469 39.721207,-73.01408 6.15537,-18.40681 8.51459,-23.94738 12.77227,-29.99539 1.3475,-1.91411 6.47826,-7.87269 11.40168,-13.241291 12.79184,-13.948474 18.38463,-21.30925 22.27953,-29.322482 2.3436,-4.821628 3.39862,-8.583275 4.06682,-14.50008 0.54753,-4.848344 0.8078,-5.786718 2.66808,-9.619355 2.43409,-5.014852 6.36416,-9.420315 9.17108,-10.280429 1.62426,-0.497718 1.87043,-0.436849 4.089,1.011088 4.56142,2.97698 12.98757,10.644958 25.62697,23.321112 16.3321,16.379588 15.63243,15.968921 34.55661,20.282661 29.84156,6.802347 46.55314,13.810416 67.3933,28.261666 46.63798,32.34035 72.18816,80.3495 76.4854,143.71735 0.5806,8.56143 0.57589,34.1623 -0.008,41.16993 -0.73429,8.81934 -2.402,17.55133 -6.90724,36.16585 -4.6732,19.30842 -5.23029,21.76845 -7.77818,34.34619 -0.963,4.75388 -1.85525,9.10401 -1.98281,9.66696 l -0.23189,1.02358 -25.01105,-0.0748 c -13.75609,-0.0412 -43.22525,-0.2499 -65.48708,-0.46385 z M 166.75201,149.92403 c 4.69994,-0.61129 9.48826,-1.32756 10.64072,-1.59171 9.07173,-2.0793 13.06492,-9.87904 9.18474,-17.94022 -1.71987,-3.57306 -4.52886,-6.23323 -7.98989,-7.56658 -2.09279,-0.80624 -3.21663,-0.93701 -6.73729,-0.78396 -7.33711,0.31893 -11.09616,2.97901 -16.86888,11.93716 -5.37566,8.34202 -8.85466,15.43564 -8.29796,16.9194 0.25045,0.66756 0.91317,0.71748 5.90267,0.44467 3.0913,-0.16902 9.46596,-0.80746 14.16589,-1.41876 z"
       id="path5" /><path
       style="fill:#ff0000;fill-opacity:1;stroke:#000000;stroke-width:15;stroke-linecap:round;stroke-linejoin:round;stroke-dasharray:none;stroke-opacity:1"
       d="m 163.5019,376.81646 c -11.07379,0.11373 -19.92185,0.38919 -23.82175,0.92237 -31.65968,4.32578 -45.04509,13.3225 -53.74724,29.22889 -7.87138,14.38792 -5.99588,64.07287 -5.99588,64.07287 h 170.06292 170.06301 c 0,0 1.87553,-49.68495 -5.99586,-64.07287 -8.70216,-15.90639 -22.08756,-24.90311 -53.74727,-29.22889 -65.55607,-0.14294 -131.22546,-1.30457 -196.81793,-0.92237 z"
       id="path3" /><path
       id="path1"
       style="fill:#000000;stroke-width:9.35687;stroke:none"
       d="m 121.56079,375.46681 c 0,-2.60974 2.16193,-13.2912 7.11141,-23.18465 9.45647,-18.9024 26.39976,-40.62528 62.50826,-71.98836 17.99228,-15.62779 29.87729,-27.61069 29.99443,-39.30018 0.0973,-9.75919 -2.34054,-9.96736 -17.02937,2.75775 -16.34854,14.16307 -38.00606,24.29128 -49.41279,24.32732 -14.03525,0.0467 -21.71131,4.61759 -31.58746,18.81995 -5.25573,7.55818 -12.28515,14.98554 -15.62076,16.50536 -13.735614,6.25842 -62.27775,-10.88591 -72.846396,-25.7281 -3.940167,-5.53355 -5.423972,-11.20463 -5.423972,-20.73111 0,-12.22919 1.151078,-14.74355 17.064433,-37.27679 36.068227,-51.07252 34.936533,-48.97884 52.666981,-97.4437 2.497144,-6.82561 11.067914,-18.5094 22.738514,-30.997316 16.67995,-17.848154 19.04124,-21.589024 21.56767,-34.169097 1.36792,-20.534293 13.14205,-27.828618 27.37817,-37.782103 l 26.14805,25.412367 c 20.13573,20.031157 18.28105,20.757575 36.34154,24.479066 95.9494,19.771088 155.19463,94.341423 156.08512,196.459973 0.19743,22.66367 -2.73463,42.44504 -10.64227,71.79416 -2.75148,10.21215 -5.80401,31.50428 -7.53448,38.04546 h -13.83464 c 0,0 1.80192,-25.17194 6.76787,-44.23452 8.17798,-31.39256 9.00782,-37.57613 8.80395,-65.60509 C 372.2848,194.16959 346.21475,143.14153 292.62459,108.87848 273.48208,96.639642 254.87247,89.063708 227.81456,83.45317 207.37811,79.215556 209.22773,78.128178 190.11329,59.125852 179.56992,48.644276 171.61637,36.922307 169.36249,36.922307 c -5.54215,0 -13.47006,13.542979 -13.47006,20.868524 0,10.984926 -7.50802,23.086747 -23.20896,39.383361 -18.01294,18.696368 -18.51644,19.538758 -27.43977,45.907618 -8.511696,25.15259 -15.472857,37.50633 -41.850007,74.26989 -18.430055,25.68724 -21.319447,31.08305 -21.34827,39.86808 -0.03742,12.34111 5.894483,19.58789 21.416977,26.16705 15.015956,6.36462 33.33296,10.23619 38.64819,8.54914 2.49219,-0.79066 8.13062,-7.04738 12.52992,-13.90313 10.30029,-16.05156 15.58372,-19.30821 36.02053,-22.20237 20.94773,-2.9666 34.35626,-9.42648 54.44903,-29.91888 8.46288,-8.63102 16.08946,-15.69292 16.94814,-15.69292 3.1468,0 12.68602,23.81255 12.68602,32.22491 0,17.714 -13.82954,33.23288 -42.07278,57.76663 -41.90407,36.40035 -49.15091,74.62736 -49.15091,74.62736 m 2.79656,-222.21159 c 0,-2.86684 8.52819,-17.54202 13.09937,-22.54137 7.2598,-7.93955 20.13087,-7.57698 25.56747,0.72048 5.84774,8.92474 1.54492,17.76461 -9.46388,19.44322 -15.70085,2.39404 -29.20296,3.49347 -29.20296,2.37785 z"
       sodipodi:nodetypes="cssccccscsscccccscsccscscsssscsccccccssscsccsss" /></g></svg>
