<?xml version="1.0" encoding="UTF-8" standalone="no"?>
<!-- Created with Inkscape (http://www.inkscape.org/) -->

<svg
   width="500mm"
   height="500mm"
   viewBox="0 0 500 500"
   version="1.1"
   id="svg1"
   xml:space="preserve"
   sodipodi:docname="knight_b.svg"
   inkscape:version="1.3.2 (091e20e, 2023-11-25, custom)"
   xmlns:inkscape="http://www.inkscape.org/namespaces/inkscape"
   xmlns:sodipodi="http://sodipodi.sourceforge.net/DTD/sodipodi-0.dtd"
   xmlns="http://www.w3.org/2000/svg"
   xmlns:svg="http://www.w3.org/2000/svg"><sodipodi:namedview
     id="namedview1"
     pagecolor="#ffffff"
     bordercolor="#000000"
     borderopacity="0.25"
     inkscape:showpageshadow="2"
     inkscape:pageopacity="0.0"
     inkscape:pagecheckerboard="true"
     inkscape:deskcolor="#d1d1d1"
     inkscape:document-units="mm"
     inkscape:zoom="0.2973261"
     inkscape:cx="1032.5363"
     inkscape:cy="1873.364"
     inkscape:window-width="3511"
     inkscape:window-height="2126"
     inkscape:window-x="318"
     inkscape:window-y="-11"
     inkscape:window-maximized="1"
     inkscape:current-layer="layer1" /><defs
     id="defs1" /><g
     inkscape:label="Layer 1"
     inkscape:groupmode="layer"
     id="layer1"><path
       style="fill:#ff00ff;fill-opacity:1;stroke:none;stroke-width:10.1197;stroke-dasharray:none;stroke-opacity:0.99"
       d="m 266.68707,373.15152 c -22.47149,-0.21234 -65.15878,-0.33129 -87.939,-0.26432 -22.78021,0.067 -41.41854,0.0624 -41.4185,-0.0102 1.8e-4,-0.26897 6.06321,-11.34924 9.31685,-17.02667 11.39301,-19.88022 22.47266,-35.67011 32.96649,-46.98136 1.56164,-1.68326 6.2721,-6.02464 10.46772,-9.64745 25.90512,-22.36861 41.81042,-38.11961 41.81042,-55.58941 0,-4.69702 -0.71751,-8.43209 -2.96296,-15.42398 -2.87769,-8.96053 -6.41339,-15.72216 -8.2212,-15.72216 -1.1274,0 -3.62584,2.25199 -15.76246,14.20765 -23.17168,22.82617 -32.81868,28.29019 -57.01284,32.29187 -10.70114,1.76995 -14.61952,2.79788 -19.28937,5.06031 -5.28263,2.55927 -9.98618,7.38122 -15.96184,16.3636 -5.40082,8.11829 -11.11532,14.4384 -13.781219,15.24169 -4.480794,1.35011 -20.928428,-2.09431 -33.807656,-7.07997 -18.975931,-7.34574 -26.711299,-15.78004 -26.711299,-29.12487 0,-9.12191 2.629187,-13.98243 23.570244,-43.57372 24.637675,-34.8149 31.518225,-47.2515 40.09535,-72.47237 6.21335,-18.27025 8.59479,-23.76972 12.89258,-29.77286 1.36019,-1.89991 6.53928,-7.81428 11.50907,-13.14305 12.91234,-13.844982 18.5578,-24.297332 22.48939,-32.251112 2.36567,-4.785857 3.43063,-8.519595 4.10513,-14.392502 0.5527,-4.812373 0.81541,-5.743785 2.69321,-9.547987 2.45702,-4.977646 6.42411,-9.350424 9.25746,-10.204156 1.63956,-0.494025 1.88805,-0.433609 4.12752,1.003586 4.60439,2.954893 13.1099,10.565981 25.86836,23.148088 16.48594,16.258065 15.77967,18.99663 34.88211,23.278366 30.12264,6.751879 46.99163,13.707954 68.02809,28.051987 47.07728,32.10041 72.86813,79.75338 77.20584,142.65108 0.58608,8.49791 0.58132,33.90885 -0.008,40.86448 -0.74121,8.75391 -2.42463,17.42112 -6.9723,35.89753 -4.71722,19.16517 -5.27956,21.60695 -7.85145,34.09137 -0.97207,4.71862 -1.87272,9.03646 -2.00148,9.59524 l -0.23408,1.01599 -25.24664,-0.0742 c -13.88566,-0.0409 -43.6324,-0.24804 -66.10392,-0.4604 z"
       id="piece"
       sodipodi:nodetypes="csssscssssssssssssscssssssssscssscccc" /><path
       style="fill:#ff00ff;fill-opacity:1;stroke:#000000;stroke-width:15;stroke-linecap:round;stroke-linejoin:round;stroke-dasharray:none;stroke-opacity:1"
       d="m 163.5019,376.81646 c -11.07379,0.11373 -19.92185,0.38919 -23.82175,0.92237 -31.65968,4.32578 -45.04509,13.3225 -53.74724,29.22889 -7.87138,14.38792 -5.99588,64.07287 -5.99588,64.07287 h 170.06292 170.06301 c 0,0 1.87553,-49.68495 -5.99586,-64.07287 -8.70216,-15.90639 -22.08756,-24.90311 -53.74727,-29.22889 -65.55607,-0.14294 -131.22546,-1.30457 -196.81793,-0.92237 z"
       id="base" /><path
       id="path1"
       style="fill:#000000;stroke-width:9.35687;stroke:none"
       d="m 121.56079,375.46681 c 0,-2.60974 2.16193,-13.2912 7.11141,-23.18465 9.45647,-18.9024 26.39976,-40.62528 62.50826,-71.98836 17.99228,-15.62779 29.87729,-27.61069 29.99443,-39.30018 0.0973,-9.75919 -2.34054,-9.96736 -17.02937,2.75775 -16.34854,14.16307 -38.00606,24.29128 -49.41279,24.32732 -14.03525,0.0467 -21.71131,4.61759 -31.58746,18.81995 -5.25573,7.55818 -12.28515,14.98554 -15.62076,16.50536 -13.735614,6.25842 -62.27775,-10.88591 -72.846396,-25.7281 -3.940167,-5.53355 -5.423972,-11.20463 -5.423972,-20.73111 0,-12.22919 1.151078,-14.74355 17.064433,-37.27679 36.068227,-51.07252 34.936533,-48.97884 52.666981,-97.4437 2.497144,-6.82561 11.067914,-18.5094 22.738514,-30.997316 16.67995,-17.848154 19.04124,-21.589024 21.56767,-34.169097 1.36792,-20.534293 13.14205,-27.828618 27.37817,-37.782103 l 26.14805,25.412367 c 20.13573,20.031157 18.28105,20.757575 36.34154,24.479066 95.9494,19.771088 155.19463,94.341423 156.08512,196.459973 0.19743,22.66367 -2.73463,42.44504 -10.64227,71.79416 -2.75148,10.21215 -5.80401,31.50428 -7.53448,38.04546 h -13.83464 c 0,0 1.80192,-25.17194 6.76787,-44.23452 8.17798,-31.39256 9.00782,-37.57613 8.80395,-65.60509 C 372.2848,194.16959 346.21475,143.14153 292.62459,108.87848 273.48208,96.639642 254.87247,89.063708 227.81456,83.45317 207.37811,79.215556 209.22773,78.128178 190.11329,59.125852 179.56992,48.644276 171.61637,36.922307 169.36249,36.922307 c -5.54215,0 -13.47006,13.542979 -13.47006,20.868524 0,10.984926 -7.50802,23.086747 -23.20896,39.383361 -18.01294,18.696368 -18.51644,19.538758 -27.43977,45.907618 -8.511696,25.15259 -15.472857,37.50633 -41.850007,74.26989 -18.430055,25.68724 -21.319447,31.08305 -21.34827,39.86808 -0.03742,12.34111 5.894483,19.58789 21.416977,26.16705 15.015956,6.36462 33.33296,10.23619 38.64819,8.54914 2.49219,-0.79066 8.13062,-7.04738 12.52992,-13.90313 10.30029,-16.05156 15.58372,-19.30821 36.02053,-22.20237 20.94773,-2.9666 34.35626,-9.42648 54.44903,-29.91888 8.46288,-8.63102 16.08946,-15.69292 16.94814,-15.69292 3.1468,0 12.68602,23.81255 12.68602,32.22491 0,17.714 -13.82954,33.23288 -42.07278,57.76663 -41.90407,36.40035 -49.15091,74.62736 -49.15091,74.62736 m 2.79656,-222.21159 c 0,-2.86684 8.52819,-17.54202 13.09937,-22.54137 7.2598,-7.93955 20.13087,-7.57698 25.56747,0.72048 5.84774,8.92474 1.54492,17.76461 -9.46388,19.44322 -15.70085,2.39404 -29.20296,3.49347 -29.20296,2.37785 z"
       sodipodi:nodetypes="cssccccscsscccccscsccscscsssscsccccccssscsccsss" /></g></svg>
