<?xml version="1.0" encoding="UTF-8" standalone="no"?>
<!-- Created with Inkscape (http://www.inkscape.org/) -->

<svg
   width="500mm"
   height="500mm"
   viewBox="0 0 500 500"
   version="1.1"
   id="svg1"
   xml:space="preserve"
   sodipodi:docname="queen_b.svg"
   inkscape:version="1.3.2 (091e20e, 2023-11-25, custom)"
   xmlns:inkscape="http://www.inkscape.org/namespaces/inkscape"
   xmlns:sodipodi="http://sodipodi.sourceforge.net/DTD/sodipodi-0.dtd"
   xmlns="http://www.w3.org/2000/svg"
   xmlns:svg="http://www.w3.org/2000/svg"><sodipodi:namedview
     id="namedview1"
     pagecolor="#ffffff"
     bordercolor="#000000"
     borderopacity="0.25"
     inkscape:showpageshadow="2"
     inkscape:pageopacity="0.0"
     inkscape:pagecheckerboard="0"
     inkscape:deskcolor="#d1d1d1"
     inkscape:document-units="mm"
     inkscape:zoom="0.4204826"
     inkscape:cx="634.98466"
     inkscape:cy="1372.2328"
     inkscape:window-width="3511"
     inkscape:window-height="2126"
     inkscape:window-x="318"
     inkscape:window-y="-11"
     inkscape:window-maximized="1"
     inkscape:current-layer="layer1" /><defs
     id="defs1" /><g
     inkscape:label="Layer 1"
     inkscape:groupmode="layer"
     id="layer1"><path
       style="fill:none"
       d="m -166.67602,450.22003 12.47592,-26.75402 c 12.20129,-29.12809 51.96614,-125.1022 58.750308,-141.79633 2.29325,-5.64311 5.16874,-8.41713 8.72503,-8.41713 8.36307,0 25.61228,-17.28786 28.70351,-28.76782 5.49494,-20.40665 -7.24861,-43.07041 -27.33674,-48.61701 -30.464598,-8.41168 -58.876178,23.68011 -46.720638,52.77243 4.81728,11.52935 7.59882,7.37829 -33.49808,49.99123 l -23.30898,24.16885 -1.73044,-15.06177 c -0.95174,-8.28396 -2.44379,-34.29167 -3.31567,-57.7949 -0.87188,-23.50321 -2.14222,-48.03797 -2.82296,-54.52167 -1.21201,-11.54365 -0.99195,-11.96178 10.59357,-20.12801 18.86586,-13.29788 24.11999,-32.63313 14.1684,-52.13985 -18.78731,-36.826174 -74.01139,-26.522444 -79.55984,14.8443 -1.44118,10.7448 3.24821,23.02178 12.77689,33.45037 l 5.18663,5.67647 -7.91221,22.81229 c -4.35172,12.54676 -13.34964,38.54586 -19.99539,57.77576 -6.64574,19.22992 -12.93988,36.51668 -13.98697,38.41503 -2.01988,3.66198 -9.21098,-14.22292 -29.50376,-73.37849 -16.52988,-48.18631 -15.9137,-44.97896 -9.87584,-51.40596 8.70705,-9.26823 13.86078,-24.47494 12.00916,-35.43453 -1.96851,-11.65152 -15.92803,-28.92838 -27.11932,-33.56397 -19.72351,-8.169744 -47.05056,4.3946 -54.00326,24.82946 -6.80459,19.99953 -0.20919,37.69853 18.68209,50.13409 7.22867,4.75841 9.33915,7.68893 8.39326,11.65449 -0.695,2.91371 -2.0868,32.10299 -3.09289,64.86505 -1.00609,32.76208 -2.58057,61.63755 -3.49883,64.16771 -1.35633,3.73718 -6.0274,0.0848 -24.89625,-19.46663 -40.99684,-42.47997 -38.11761,-38.10947 -33.2573,-50.4826 5.67692,-14.45203 3.00615,-26.90886 -8.49991,-39.64469 -11.16702,-12.36056 -23.78657,-16.54464 -37.50421,-12.43474 -21.60974,6.47444 -34.51635,28.52385 -28.48331,48.66035 3.69999,12.34947 15.95844,25.23442 26.64098,28.00254 7.08245,1.83525 9.13089,5.10297 21.53072,34.34628 15.92028,37.54582 59.2522,143.24342 59.2522,143.24342 z"
       id="path5" /><path
       id="piece"
       style="fill:#ff00ff;stroke:#000000;stroke-width:13.9839;stroke-dasharray:none;stroke-opacity:1;fill-opacity:1"
       d="m 136.15602,376.67357 c 0,-0.62593 -5.35869,-9.03388 -11.90819,-24.53114 C 102.9921,301.8477 76.419305,237.18107 74.704375,231.57521 c -0.92036,-3.00851 -7.53343,-9.21865 -14.69571,-13.80031 -17.83238,-11.40722 -25.74261,-24.40087 -25.74261,-42.28573 0,-15.2537 3.79773,-24.45663 14.15044,-34.2904 20.33689,-19.31746 48.90371,-17.76615 67.732075,3.67816 10.66209,12.14346 14.26629,25.17589 10.95927,39.62762 -2.24261,9.80025 -1.9933,12.18299 1.82673,17.45823 6.60669,9.12345 30.09819,28.70449 30.09819,28.70449 0,0 2.15847,-22.33866 3.25911,-48.104 l 2.0012,-46.84607 -11.47071,-11.17281 c -14.39433,-14.02052 -18.48668,-26.561312 -14.6956,-45.033948 5.37483,-26.189708 25.21035,-40.823458 52.37873,-38.642635 17.03422,1.36734 25.99125,6.333072 36.66471,20.326702 11.31489,14.834586 10.3793,45.249981 -1.79383,58.316341 l -4.8288,5.1831 11.88773,34.44555 16.89822,42.89615 c 0,0 7.44627,-16.99398 14.59663,-37.7644 11.49489,-33.39045 12.62538,-38.35418 9.76051,-42.85655 -14.40013,-22.630995 -15.32694,-39.169979 -3.28453,-58.613027 10.27661,-16.592077 23.95252,-23.273835 44.77648,-21.87684 18.31994,1.22902 27.27,6.264691 38.37092,21.58907 14.49026,20.003225 11.64807,43.764227 -7.46131,62.377377 l -11.82684,11.5197 2.7644,47.29906 c 1.52043,26.01448 4.37073,47.29906 4.37073,47.29906 0,0 8.92718,-7.5831 17.87492,-16.85134 11.14582,-11.54508 15.889,-18.19752 15.0631,-21.12648 -5.73596,-20.34183 -3.14206,-34.57175 8.77631,-48.14602 19.95424,-22.72662 50.96808,-22.88868 70.74006,-0.36965 21.72588,24.74441 12.9079,59.20805 -19.71854,77.06671 -4.684,2.56386 -8.56404,7.81396 -11.59847,15.69394 -18.82555,46.79533 -39.12986,92.99149 -58.89317,139.39731 z m 27.34588,0.14289 c -11.07379,0.11373 -19.92185,0.38919 -23.82175,0.92237 -31.65968,4.32578 -45.04509,13.3225 -53.74724,29.22889 -7.87138,14.38792 -5.99588,64.07287 -5.99588,64.07287 h 170.06292 170.06301 c 0,0 1.87553,-49.68495 -5.99586,-64.07287 -8.70216,-15.90639 -22.08756,-24.90311 -53.74727,-29.22889 -65.55607,-0.14294 -131.22546,-1.30457 -196.81793,-0.92237 z" /></g></svg>
