<?xml version="1.0" encoding="UTF-8" standalone="no"?>
<!-- Uploaded to: SVG Repo, www.svgrepo.com, Generator: SVG Repo Mixer Tools -->

<svg
   fill="#000000"
   version="1.1"
   id="Capa_1"
   width="1000"
   height="730"
   viewBox="0 0 633.97125 462.79901"
   xml:space="preserve"
   sodipodi:docname="copyfile.svg"
   inkscape:version="1.2 (dc2aedaf03, 2022-05-15)"
   xmlns:inkscape="http://www.inkscape.org/namespaces/inkscape"
   xmlns:sodipodi="http://sodipodi.sourceforge.net/DTD/sodipodi-0.dtd"
   xmlns:xlink="http://www.w3.org/1999/xlink"
   xmlns="http://www.w3.org/2000/svg"
   xmlns:svg="http://www.w3.org/2000/svg"><defs
   id="defs199"><linearGradient
     inkscape:collect="always"
     id="linearGradient5224"><stop
       style="stop-color:#595959;stop-opacity:1;"
       offset="0"
       id="stop5220" /><stop
       style="stop-color:#595959;stop-opacity:0;"
       offset="1"
       id="stop5222" /></linearGradient><rect
     x="151"
     y="484.5"
     width="660.5"
     height="174"
     id="rect4413" /><linearGradient
     inkscape:collect="always"
     id="linearGradient2658"><stop
       style="stop-color:#ffe66e;stop-opacity:1;"
       offset="0.35474005"
       id="stop2654" /><stop
       style="stop-color:#ff9852;stop-opacity:1;"
       offset="1"
       id="stop2656" /></linearGradient><linearGradient
     inkscape:collect="always"
     id="linearGradient8924"><stop
       style="stop-color:#80ab85;stop-opacity:1;"
       offset="0.48929664"
       id="stop8920" /><stop
       style="stop-color:#50a1df;stop-opacity:1;"
       offset="0.58409786"
       id="stop8922" /></linearGradient><linearGradient
     inkscape:collect="always"
     xlink:href="#linearGradient8924"
     id="linearGradient8926"
     x1="201.23668"
     y1="268.29968"
     x2="199.1004"
     y2="26.917822"
     gradientUnits="userSpaceOnUse"
     gradientTransform="matrix(1.2892101,0.00262531,-0.00262531,1.2892101,185.76494,6.0337307)" /><radialGradient
     inkscape:collect="always"
     xlink:href="#linearGradient2658"
     id="radialGradient2660"
     cx="179.67982"
     cy="138.78029"
     fx="179.67982"
     fy="138.78029"
     r="48.788147"
     gradientTransform="matrix(1.7152583,2.6321203e-8,-2.5259711e-8,1.6460846,130.54052,-59.156555)"
     gradientUnits="userSpaceOnUse" /><linearGradient
     inkscape:collect="always"
     xlink:href="#linearGradient4813"
     id="linearGradient4815"
     x1="473.78653"
     y1="297.06668"
     x2="-56.418449"
     y2="298.0101"
     gradientUnits="userSpaceOnUse"
     gradientTransform="matrix(0.51843516,0,0,0.51843516,117.08186,64.216062)" /><linearGradient
     inkscape:collect="always"
     id="linearGradient4813"><stop
       style="stop-color:#000000;stop-opacity:1;"
       offset="0"
       id="stop4809" /><stop
       style="stop-color:#00ff27;stop-opacity:1;"
       offset="1"
       id="stop4811" /></linearGradient><linearGradient
     inkscape:collect="always"
     xlink:href="#linearGradient5224"
     id="linearGradient5226"
     x1="131.46974"
     y1="350.23955"
     x2="441.1833"
     y2="350.23955"
     gradientUnits="userSpaceOnUse" /><radialGradient
     inkscape:collect="always"
     xlink:href="#linearGradient2658"
     id="radialGradient2660-9"
     cx="179.67982"
     cy="138.78029"
     fx="179.67982"
     fy="138.78029"
     r="48.788147"
     gradientTransform="matrix(1.7152583,2.6321203e-8,-2.5259711e-8,1.6460846,-136.09204,-59.088827)"
     gradientUnits="userSpaceOnUse" /><linearGradient
     inkscape:collect="always"
     xlink:href="#linearGradient8924"
     id="linearGradient6098"
     gradientUnits="userSpaceOnUse"
     gradientTransform="matrix(1.2892101,0.00262531,-0.00262531,1.2892101,-80.867201,5.5584889)"
     x1="201.23668"
     y1="268.29968"
     x2="199.1004"
     y2="26.917822" /></defs><sodipodi:namedview
   id="namedview197"
   pagecolor="#ffffff"
   bordercolor="#666666"
   borderopacity="1.0"
   inkscape:showpageshadow="2"
   inkscape:pageopacity="0.0"
   inkscape:pagecheckerboard="true"
   inkscape:deskcolor="#d1d1d1"
   showgrid="false"
   inkscape:zoom="2"
   inkscape:cx="620"
   inkscape:cy="383.25"
   inkscape:window-width="3602"
   inkscape:window-height="2126"
   inkscape:window-x="227"
   inkscape:window-y="-11"
   inkscape:window-maximized="1"
   inkscape:current-layer="Capa_1" />
<path
   id="rect8138-3"
   style="fill:url(#linearGradient6098);fill-opacity:1;stroke-width:1.01992"
   d="M 38.421569,38.652669 246.06326,36.970926 328.12638,95.57668 321.94631,420.56409 40.198459,419.69326 Z"
   sodipodi:nodetypes="cccccc" /><path
   style="fill:#000000;fill-opacity:1;stroke-width:0.883931"
   d="m 266.63124,87.114696 32.74077,0.06668 -32.67895,-30.428442 z"
   id="path1765-0"
   sodipodi:nodetypes="cccc" /><ellipse
   style="fill:url(#radialGradient2660-9);fill-opacity:1;stroke:#595959;stroke-width:5.46723;stroke-dasharray:none;stroke-dashoffset:0;stroke-opacity:1"
   id="path2652-1"
   cx="172.10361"
   cy="170.28778"
   rx="77.987259"
   ry="75.479607"
   transform="rotate(0.11667606)" /><path
   style="fill:#000000;fill-opacity:1;stroke-width:0.883931"
   d="m 18.159769,371.62098 c -0.70181,-81.62048 0.66484,-326.481346 0.66484,-326.481346 0.0252,-12.354371 11.8224,-22.370145 26.28933,-22.340692 L 255.284,23.226939 c 3.36673,0.0069 6.57596,1.215196 8.84644,3.333592 l 67.81857,63.119375 c 2.03263,1.900732 3.16368,4.385851 3.16404,6.958464 l 0.0496,350.33544 -25.90986,-0.14633 3.78836,-336.14519 c -0.003,-2.57926 -2.44533,-4.67929 -5.47231,-4.68547 l -52.00626,-0.10607 c -6.0865,-0.0124 -11.02751,-4.23777 -11.01696,-9.420521 l 0.10137,-49.782447 c 0.005,-2.579952 -2.44516,-4.67911 -5.47215,-4.685282 L 45.089059,41.607308 c -2.31881,-0.0047 -4.20928,1.600632 -4.2133,3.577228 l -0.62305,372.571744 269.906071,0.5229 -0.90389,28.54453 -285.929521,0.0125 c 0.001,-0.005 -5.09534,-0.3337 -5.1656,-8.59543 z"
   id="path7760-4"
   sodipodi:nodetypes="ccssccscccssssccccccccc" /><path
   id="rect8138"
   style="fill:url(#linearGradient8926);fill-opacity:1;stroke-width:1.01992"
   d="M 305.05371,39.127911 512.6954,37.446168 594.75852,96.051922 588.57845,421.03934 306.8306,420.16851 Z"
   sodipodi:nodetypes="cccccc" />
<path
   style="fill:#000000;fill-opacity:1;stroke-width:0.883931"
   d="m 533.26338,87.589938 32.74077,0.06668 -32.67895,-30.428442 z"
   id="path1765"
   sodipodi:nodetypes="cccc" /><ellipse
   style="fill:url(#radialGradient2660);fill-opacity:1;stroke:#595959;stroke-width:5.46723;stroke-dasharray:none;stroke-dashoffset:0;stroke-opacity:1"
   id="path2652"
   cx="438.73615"
   cy="170.22005"
   rx="77.987259"
   ry="75.479607"
   transform="rotate(0.11667606)" /><path
   style="fill:#000000;fill-opacity:1;stroke-width:0.883931"
   d="m 284.79191,372.09623 c -0.70181,-81.62048 0.66484,-326.481354 0.66484,-326.481354 0.0252,-12.354371 11.8224,-22.370145 26.28933,-22.340692 l 210.17006,0.427997 c 3.36673,0.0069 6.57596,1.215196 8.84644,3.333592 l 67.81857,63.119375 c 2.03263,1.900732 3.16368,4.385851 3.16404,6.958464 l 0.0496,350.335448 -25.90986,-0.14633 3.78836,-336.14519 c -0.003,-2.57926 -2.44533,-4.67929 -5.47231,-4.68547 L 522.19472,106.366 c -6.0865,-0.0124 -11.02751,-4.23777 -11.01696,-9.420529 l 0.10137,-49.782447 c 0.005,-2.579952 -2.44516,-4.67911 -5.47215,-4.685282 L 311.7212,42.08255 c -2.31881,-0.0047 -4.20928,1.600632 -4.2133,3.577228 l -0.62305,372.571752 269.90607,0.5229 -0.90389,28.54453 -285.92952,0.0125 c 10e-4,-0.005 -5.09534,-0.3337 -5.1656,-8.59543 z"
   id="path7760"
   sodipodi:nodetypes="ccssccscccssssccccccccc" /><g
   id="g6"
   transform="matrix(-1.0308727,0,0,-1.0308727,513.97963,477.32605)">
	<g
   id="g4">
		<path
   d="M 306.02465,199.61578 H 190.80492 l 6.89104,-7.00509 c 2.62951,-2.60877 4.07284,-6.17146 4.07284,-9.88346 0,-3.72028 -1.44541,-7.24358 -4.07284,-9.85441 l -8.3551,-8.32399 c -5.43112,-5.40002 -14.27562,-5.41039 -19.7109,-0.0108 l -45.02091,44.73889 c -2.63366,2.61914 -4.08112,6.11339 -4.06869,9.83783 -0.0122,3.73065 1.43503,7.23112 4.06869,9.84819 l 46.97437,46.68613 c 2.71867,2.70415 6.28758,4.05001 9.85649,4.05001 3.56891,0 7.13781,-1.34794 9.85442,-4.05001 l 8.35302,-8.30118 c 2.62743,-2.61292 4.07697,-6.09681 4.07282,-9.81296 0,-3.71821 -1.44539,-6.93874 -4.07282,-9.54542 l -8.84865,-8.53136 h 115.22168 z"
   id="path2"
   style="fill:url(#linearGradient4815);fill-opacity:1;stroke-width:0.518435"
   sodipodi:nodetypes="cccscccccccsccccccc" />
	</g>
</g><g
   aria-label="Copy"
   id="text5195"
   style="font-size:152.153px;line-height:8;font-family:Gadugi;-inkscape-font-specification:Gadugi;letter-spacing:0px;word-spacing:0px;opacity:1;fill:#ffffff;stroke:#000000;stroke-width:6.33971"><path
     d="m 200.34476,386.64811 q -11.66408,5.6463 -30.46032,5.6463 -24.51684,0 -38.5583,-14.41293 -14.04147,-14.41293 -14.04147,-38.40972 0,-25.55695 15.75022,-41.45575 15.8245,-15.8988 41.00998,-15.8988 15.60163,0 26.29989,3.93756 v 23.10526 q -10.69826,-6.38924 -24.36826,-6.38924 -15.00727,0 -24.21966,9.43527 -9.21239,9.43527 -9.21239,25.55695 0,15.45304 8.69233,24.66543 8.69234,9.13809 23.40244,9.13809 14.04146,0 25.70554,-6.83499 z"
     style="font-weight:bold;-inkscape-font-specification:'Gadugi Bold'"
     id="path17028" /><path
     d="m 252.87023,392.29441 q -19.01912,0 -29.94026,-10.62397 -10.84685,-10.69825 -10.84685,-28.97444 0,-18.87054 11.29261,-29.49451 11.2926,-10.69825 30.53461,-10.69825 18.94483,0 29.71738,10.69825 10.77255,10.62397 10.77255,28.15722 0,18.94484 -11.14402,29.94027 -11.06972,10.99543 -30.38602,10.99543 z m 0.59435,-61.81216 q -8.32087,0 -12.92706,5.7206 -4.6062,5.7206 -4.6062,16.19597 0,21.91657 17.68184,21.91657 16.86462,0 16.86462,-22.51091 0,-21.32223 -17.0132,-21.32223 z"
     style="font-weight:bold;-inkscape-font-specification:'Gadugi Bold'"
     id="path17030" /><path
     d="m 333.40434,381.59615 h -0.29717 v 43.83314 H 309.63043 V 314.36057 h 23.47674 v 11.4412 h 0.29717 q 8.69234,-13.29853 24.44255,-13.29853 14.7844,0 22.80809,10.1782 8.09799,10.10391 8.09799,27.56287 0,19.01913 -9.43527,30.53461 -9.36098,11.51549 -24.9626,11.51549 -13.74429,0 -20.95076,-10.69826 z M 332.7357,350.3929 v 6.09206 q 0,7.87511 4.16043,12.85277 4.16044,4.97766 10.92114,4.97766 8.02369,0 12.40701,-6.16635 4.45761,-6.24065 4.45761,-17.60755 0,-20.05924 -15.60163,-20.05924 -7.20646,0 -11.81266,5.49772 -4.5319,5.42342 -4.5319,14.41293 z"
     style="font-weight:bold;-inkscape-font-specification:'Gadugi Bold'"
     id="path17032" /><path
     d="m 476.41923,314.36057 -30.90608,82.16857 q -11.14402,29.64309 -33.58064,29.64309 -8.54375,0 -14.04146,-1.93163 v -18.72196 q 4.68049,2.74886 10.1782,2.74886 9.0638,0 12.62989,-8.54375 l 4.01185,-9.43526 -30.90608,-75.92792 h 26.00271 l 14.19005,46.28483 q 1.33728,4.30902 2.08021,10.1782 h 0.29718 q 0.66864,-4.30902 2.45168,-10.02962 l 14.33864,-46.43341 z"
     style="font-weight:bold;-inkscape-font-specification:'Gadugi Bold'"
     id="path17034" /></g></svg>
