<?xml version="1.0" encoding="UTF-8" standalone="no"?>
<!-- Uploaded to: SVG Repo, www.svgrepo.com, Generator: SVG Repo Mixer Tools -->

<svg
   width="800px"
   height="800px"
   viewBox="0 0 25 25"
   fill="none"
   version="1.1"
   id="svg4"
   sodipodi:docname="copy.svg"
   inkscape:version="1.2 (dc2aedaf03, 2022-05-15)"
   xmlns:inkscape="http://www.inkscape.org/namespaces/inkscape"
   xmlns:sodipodi="http://sodipodi.sourceforge.net/DTD/sodipodi-0.dtd"
   xmlns="http://www.w3.org/2000/svg"
   xmlns:svg="http://www.w3.org/2000/svg">
  <defs
     id="defs8" />
  <sodipodi:namedview
     id="namedview6"
     pagecolor="#ffffff"
     bordercolor="#666666"
     borderopacity="1.0"
     inkscape:showpageshadow="2"
     inkscape:pageopacity="0.0"
     inkscape:pagecheckerboard="0"
     inkscape:deskcolor="#d1d1d1"
     showgrid="false"
     inkscape:zoom="1.3037281"
     inkscape:cx="704.51805"
     inkscape:cy="648.52478"
     inkscape:window-width="3495"
     inkscape:window-height="2126"
     inkscape:window-x="334"
     inkscape:window-y="-11"
     inkscape:window-maximized="1"
     inkscape:current-layer="svg4" />
  <path
     style="fill:#ffffff;fill-opacity:1;stroke:#ffffff;stroke-width:15.3406;stroke-linejoin:bevel;stroke-dasharray:none;stroke-opacity:1;paint-order:stroke markers fill"
     d="M 282.26744,464.05381 V 282.26744 h 165.67871 165.67872 v 181.80998 181.80997 l -9.28153,-0.21537 -9.28152,-0.21536 -51.24322,-89.22449 c -28.18376,-49.07346 -51.41147,-89.39274 -51.61711,-89.59838 -0.20564,-0.20564 -17.86565,27.60902 -39.24447,61.81037 -27.3945,43.82509 -39.15486,62.01227 -39.83346,61.60174 -0.52959,-0.32038 -10.70416,-9.38419 -22.61016,-20.1418 -11.90599,-10.75762 -21.94765,-19.5593 -22.3148,-19.5593 -0.97484,0 -14.77971,14.96608 -27.23944,29.5307 -17.13674,20.03174 -34.16968,41.56189 -47.78662,60.4037 -3.96076,5.48051 -4.06872,5.56097 -7.462,5.56097 h -3.4431 z m 123.67728,9.0382 c 7.56579,-2.83819 13.21931,-6.47108 18.9234,-12.15995 6.02778,-6.0117 10.11638,-12.69594 12.86953,-21.03973 1.75305,-5.31285 2.02474,-7.42282 2.02474,-15.72414 0,-8.30132 -0.27169,-10.41129 -2.02474,-15.72414 -4.5787,-13.87636 -13.5753,-24.45862 -25.93662,-30.50799 -8.39778,-4.10969 -13.87518,-5.38471 -23.03662,-5.36239 -8.60123,0.0209 -13.28026,1.13913 -21.74004,5.1954 -37.88872,18.16677 -38.26983,73.91838 -0.63283,92.57465 8.99176,4.45713 12.72844,5.21166 24.4108,4.9292 8.414,-0.20344 10.77904,-0.54407 15.14238,-2.18091 z"
     id="path4228"
     transform="scale(0.03125)" />
  <path
     d="m 8.5,16.5 h -3 v -12 h 11 v 4 m 3,12 h -11 v -12 h 11 z"
     stroke="#121923"
     stroke-width="1.2"
     id="path2"
     style="stroke-width:0.625;stroke-dasharray:none;stroke:#000000;stroke-opacity:1" />
  <path
     style="fill:none;stroke:#000000;stroke-width:0.625;stroke-linecap:butt;stroke-linejoin:miter;stroke-dasharray:none;stroke-opacity:1"
     d="m 9.2861776,20.398972 c 1.1362674,-1.603659 2.2371654,-2.762739 2.2371654,-2.762739 l 1.481915,1.337666 2.358007,-3.772661 3.00891,5.238539 z"
     id="path2509"
     sodipodi:nodetypes="cccccc" />
  <path
     style="fill:none;stroke:#000000;stroke-width:0.625;stroke-linecap:butt;stroke-linejoin:miter;stroke-dasharray:none;stroke-opacity:1"
     d="M 6.2697157,16.427803 8.4251996,13.860331"
     id="path2576" />
  <path
     style="fill:none;stroke:#000000;stroke-width:0.625;stroke-linecap:butt;stroke-linejoin:miter;stroke-dasharray:none;stroke-opacity:1"
     d="M 12.100224,20.444753 13.81503,17.707789"
     id="path2576-5"
     sodipodi:nodetypes="cc" />
  <ellipse
     style="fill:none;stroke:#000000;stroke-width:0.3125;stroke-linejoin:bevel;stroke-dasharray:none;stroke-opacity:1;paint-order:stroke markers fill"
     id="path2630"
     cx="12.161016"
     cy="13.254237"
     rx="1.4253198"
     ry="1.4507434" />
  <path
     style="fill:#000000;stroke:#000000;stroke-width:21.6949;stroke-linejoin:bevel;stroke-dasharray:none;stroke-opacity:1;paint-order:stroke markers fill;fill-opacity:1"
     d="m 325.60007,632.13559 c 12.30811,-15.84571 20.01801,-25.31334 32.2355,-39.58465 11.13082,-13.00196 11.41493,-13.24006 13.59099,-11.38983 3.20709,2.7269 25.65741,22.90489 28.73969,25.83078 l 2.60693,2.47466 -10.18892,16.35147 -10.18891,16.35147 h -32.29454 -32.29454 z"
     id="path2723"
     transform="scale(0.03125)" />
  <path
     style="fill:#000000;fill-opacity:1;stroke:#000000;stroke-width:15.3406;stroke-linejoin:bevel;stroke-dasharray:none;stroke-opacity:1;paint-order:stroke markers fill"
     d="m 234.86434,501.06306 c 7.70635,-9.17561 16.86493,-20.06277 20.3524,-24.19368 l 6.34086,-7.51075 v 24.19368 24.19367 h -20.35241 -20.3524 z"
     id="path2932"
     transform="scale(0.03125)" />
  <path
     style="fill:#ffffff;fill-opacity:1;stroke:#000000;stroke-width:15.3406;stroke-linejoin:bevel;stroke-dasharray:none;stroke-opacity:1;paint-order:stroke markers fill"
     d="M 186.38855,335.95961 V 154.17325 h 165.67872 165.67871 v 53.69217 53.69218 H 389.65179 261.5576 v 87.69268 87.69269 l -33.89279,40.40151 -33.89279,40.4015 h -3.69173 -3.69174 z"
     id="path3739"
     transform="scale(0.03125)" />
</svg>
