<?xml version="1.0" encoding="UTF-8" standalone="no"?>
<svg
   width="48"
   height="48"
   viewBox="0 0 48 48"
   version="1.1"
   id="svg6"
   sodipodi:docname="exit.svg"
   inkscape:version="1.2 (dc2aedaf03, 2022-05-15)"
   xmlns:inkscape="http://www.inkscape.org/namespaces/inkscape"
   xmlns:sodipodi="http://sodipodi.sourceforge.net/DTD/sodipodi-0.dtd"
   xmlns:xlink="http://www.w3.org/1999/xlink"
   xmlns="http://www.w3.org/2000/svg"
   xmlns:svg="http://www.w3.org/2000/svg">
  <defs
     id="defs10">
    <linearGradient
       inkscape:collect="always"
       id="linearGradient2510">
      <stop
         style="stop-color:#545454;stop-opacity:1;"
         offset="0"
         id="stop2506" />
      <stop
         style="stop-color:#c3c3c3;stop-opacity:1;"
         offset="1"
         id="stop2508" />
    </linearGradient>
    <linearGradient
       inkscape:collect="always"
       xlink:href="#linearGradient2510"
       id="linearGradient2512"
       x1="24.602034"
       y1="5.9227118"
       x2="24.471865"
       y2="41.882034"
       gradientUnits="userSpaceOnUse"
       gradientTransform="matrix(-1,0,0,1,48,0)" />
  </defs>
  <sodipodi:namedview
     id="namedview8"
     pagecolor="#ffffff"
     bordercolor="#666666"
     borderopacity="1.0"
     inkscape:showpageshadow="2"
     inkscape:pageopacity="0.0"
     inkscape:pagecheckerboard="0"
     inkscape:deskcolor="#d1d1d1"
     showgrid="false"
     inkscape:zoom="30.729167"
     inkscape:cx="30.475932"
     inkscape:cy="25.301695"
     inkscape:window-width="3564"
     inkscape:window-height="2126"
     inkscape:window-x="265"
     inkscape:window-y="-11"
     inkscape:window-maximized="1"
     inkscape:current-layer="svg6" />
  <path
     d="M0 0h48v48h-48z"
     fill="none"
     id="path2" />
  <path
     d="m 10,6 h 14.494915 c 2.21,0 4,1.79 4,4 v 8 h -4 V 10 H 10 v 28 h 14.494915 v -8 h 4 v 8 c 0,2.21 -1.79,4 -4,4 H 10 C 7.79,42 6,40.21 6,38 V 10 C 6,7.79 7.79,6 10,6 Z"
     id="path2504"
     style="fill:url(#linearGradient2512);fill-opacity:1"
     sodipodi:nodetypes="sssccccccccssssss" />
  <path
     d="m 30.095423,30.909661 2.83,2.83 10,-10 -10,-10 -2.83,2.83 5.17,5.17 H 17.682712 v 4 h 17.582711 z"
     id="path4"
     style="fill:#800000"
     sodipodi:nodetypes="cccccccccc" />
</svg>
