<?xml version="1.0" encoding="UTF-8" standalone="no"?>
<!-- Uploaded to: SVG Repo, www.svgrepo.com, Generator: SVG Repo Mixer Tools -->

<svg
   fill="#000000"
   height="1100"
   width="1100"
   version="1.1"
   id="Layer_1"
   viewBox="0 0 704 704"
   xml:space="preserve"
   sodipodi:docname="fullscreen.svg"
   inkscape:version="1.2 (dc2aedaf03, 2022-05-15)"
   xmlns:inkscape="http://www.inkscape.org/namespaces/inkscape"
   xmlns:sodipodi="http://sodipodi.sourceforge.net/DTD/sodipodi-0.dtd"
   xmlns:xlink="http://www.w3.org/1999/xlink"
   xmlns="http://www.w3.org/2000/svg"
   xmlns:svg="http://www.w3.org/2000/svg"><defs
   id="defs35"><linearGradient
     inkscape:collect="always"
     id="linearGradient4718"><stop
       style="stop-color:#545454;stop-opacity:1;"
       offset="0"
       id="stop4714" /><stop
       style="stop-color:#9a9a9a;stop-opacity:1;"
       offset="1"
       id="stop4716" /></linearGradient><linearGradient
     inkscape:collect="always"
     xlink:href="#linearGradient4718"
     id="linearGradient4720-5-5-9"
     x1="12.926641"
     y1="301.08322"
     x2="476.14844"
     y2="300.1398"
     gradientUnits="userSpaceOnUse" /><linearGradient
     inkscape:collect="always"
     xlink:href="#linearGradient4718"
     id="linearGradient4720-5-5-9-9"
     x1="12.926641"
     y1="301.08322"
     x2="476.14844"
     y2="300.1398"
     gradientUnits="userSpaceOnUse" /><linearGradient
     inkscape:collect="always"
     xlink:href="#linearGradient4718"
     id="linearGradient4720-5-5-9-9-3"
     x1="12.926641"
     y1="301.08322"
     x2="476.14844"
     y2="300.1398"
     gradientUnits="userSpaceOnUse" /><linearGradient
     inkscape:collect="always"
     xlink:href="#linearGradient4718"
     id="linearGradient4720-5-5-9-9-3-1"
     x1="12.926641"
     y1="301.08322"
     x2="476.14844"
     y2="300.1398"
     gradientUnits="userSpaceOnUse" /></defs><sodipodi:namedview
   id="namedview33"
   pagecolor="#ffffff"
   bordercolor="#666666"
   borderopacity="1.0"
   inkscape:showpageshadow="2"
   inkscape:pageopacity="0.0"
   inkscape:pagecheckerboard="0"
   inkscape:deskcolor="#d1d1d1"
   showgrid="true"
   inkscape:zoom="0.921875"
   inkscape:cx="19.525424"
   inkscape:cy="791.32203"
   inkscape:window-width="3571"
   inkscape:window-height="2126"
   inkscape:window-x="258"
   inkscape:window-y="-11"
   inkscape:window-maximized="1"
   inkscape:current-layer="Layer_1"><inkscape:grid
     type="xygrid"
     id="grid23777" /></sodipodi:namedview>
<g
   id="g6"
   style="fill:#bababa;fill-opacity:1"
   transform="translate(104.07078,90.32558)">
	<g
   id="g4"
   style="fill:#bababa;fill-opacity:1">
		<path
   d="M 0,0 V 512 H 512 V 0 Z M 477.867,477.867 H 34.133 V 34.133 h 443.733 v 443.734 z"
   id="path2"
   style="fill:#bababa;fill-opacity:1" />
	</g>
</g>



<g
   id="g6-1-1-4-1"
   transform="matrix(0.34602979,0.34602979,0.34602979,-0.34602979,79.56755,273.68812)">
	<g
   id="g4-4-5-4-8">
		<path
   d="M 393.80073,261.17 H 135.532 l 56.6781,-56.8981 c 5.072,-5.032 7.856,-11.904 7.856,-19.064 0,-7.176 -2.788,-13.972 -7.856,-19.008 l -16.116,-16.056 c -10.476,-10.416 -27.536,-10.436 -38.02,-0.02 L 7.848,279.806 c -5.08,5.052 -7.872,11.792 -7.848,18.976 -0.024,7.196 2.768,13.948 7.848,18.996 l 130.98466,130.42866 c 5.244,5.216 12.128,7.812 19.012,7.812 6.884,0 13.768,-2.6 19.008,-7.812 l 16.112,-16.012 c 5.068,-5.04 7.864,-11.76 7.856,-18.928 0,-7.172 -2.788,-13.384 -7.856,-18.412 L 135.52,338.022 l 259.8021,2.47649 z"
   id="path2-0-5-0-6"
   style="fill:url(#linearGradient4720-5-5-9);fill-opacity:1"
   sodipodi:nodetypes="cccscccccccsccccccc" />
	</g>
</g><g
   id="g6-1-1-4-1-4"
   transform="matrix(-0.34602979,0.34602979,0.34602979,0.34602979,433.59574,67.642321)">
	<g
   id="g4-4-5-4-8-9">
		<path
   d="M 393.80073,261.17 H 135.532 l 56.6781,-56.8981 c 5.072,-5.032 7.856,-11.904 7.856,-19.064 0,-7.176 -2.788,-13.972 -7.856,-19.008 l -16.116,-16.056 c -10.476,-10.416 -27.536,-10.436 -38.02,-0.02 L 7.848,279.806 c -5.08,5.052 -7.872,11.792 -7.848,18.976 -0.024,7.196 2.768,13.948 7.848,18.996 l 130.98466,130.42866 c 5.244,5.216 12.128,7.812 19.012,7.812 6.884,0 13.768,-2.6 19.008,-7.812 l 16.112,-16.012 c 5.068,-5.04 7.864,-11.76 7.856,-18.928 0,-7.172 -2.788,-13.384 -7.856,-18.412 L 135.52,338.022 l 259.8021,2.47649 z"
   id="path2-0-5-0-6-9"
   style="fill:url(#linearGradient4720-5-5-9-9);fill-opacity:1"
   sodipodi:nodetypes="cccscccccccsccccccc" />
	</g>
</g><g
   id="g6-1-1-4-1-4-8"
   transform="matrix(-0.34602979,-0.34602979,-0.34602979,0.34602979,640.46526,417.38071)">
	<g
   id="g4-4-5-4-8-9-1">
		<path
   d="M 393.80073,261.17 H 135.532 l 56.6781,-56.8981 c 5.072,-5.032 7.856,-11.904 7.856,-19.064 0,-7.176 -2.788,-13.972 -7.856,-19.008 l -16.116,-16.056 c -10.476,-10.416 -27.536,-10.436 -38.02,-0.02 L 7.848,279.806 c -5.08,5.052 -7.872,11.792 -7.848,18.976 -0.024,7.196 2.768,13.948 7.848,18.996 l 130.98466,130.42866 c 5.244,5.216 12.128,7.812 19.012,7.812 6.884,0 13.768,-2.6 19.008,-7.812 l 16.112,-16.012 c 5.068,-5.04 7.864,-11.76 7.856,-18.928 0,-7.172 -2.788,-13.384 -7.856,-18.412 L 135.52,338.022 l 259.8021,2.47649 z"
   id="path2-0-5-0-6-9-4"
   style="fill:url(#linearGradient4720-5-5-9-9-3);fill-opacity:1"
   sodipodi:nodetypes="cccscccccccsccccccc" />
	</g>
</g><g
   id="g6-1-1-4-1-4-8-1"
   transform="matrix(0.34602979,-0.34602979,-0.34602979,-0.34602979,286.50189,624.51226)">
	<g
   id="g4-4-5-4-8-9-1-0">
		<path
   d="M 393.80073,261.17 H 135.532 l 56.6781,-56.8981 c 5.072,-5.032 7.856,-11.904 7.856,-19.064 0,-7.176 -2.788,-13.972 -7.856,-19.008 l -16.116,-16.056 c -10.476,-10.416 -27.536,-10.436 -38.02,-0.02 L 7.848,279.806 c -5.08,5.052 -7.872,11.792 -7.848,18.976 -0.024,7.196 2.768,13.948 7.848,18.996 l 130.98466,130.42866 c 5.244,5.216 12.128,7.812 19.012,7.812 6.884,0 13.768,-2.6 19.008,-7.812 l 16.112,-16.012 c 5.068,-5.04 7.864,-11.76 7.856,-18.928 0,-7.172 -2.788,-13.384 -7.856,-18.412 L 135.52,338.022 l 259.8021,2.47649 z"
   id="path2-0-5-0-6-9-4-4"
   style="fill:url(#linearGradient4720-5-5-9-9-3-1);fill-opacity:1"
   sodipodi:nodetypes="cccscccccccsccccccc" />
	</g>
</g>
</svg>
