<?xml version="1.0" encoding="UTF-8" standalone="no"?>
<!-- Uploaded to: SVG Repo, www.svgrepo.com, Generator: SVG Repo Mixer Tools -->

<svg
   fill="#000000"
   version="1.1"
   id="Capa_1"
   width="1000"
   height="740"
   viewBox="0 0 633.97125 469.13873"
   xml:space="preserve"
   sodipodi:docname="openfolder.svg"
   inkscape:version="1.2 (dc2aedaf03, 2022-05-15)"
   xmlns:inkscape="http://www.inkscape.org/namespaces/inkscape"
   xmlns:sodipodi="http://sodipodi.sourceforge.net/DTD/sodipodi-0.dtd"
   xmlns:xlink="http://www.w3.org/1999/xlink"
   xmlns="http://www.w3.org/2000/svg"
   xmlns:svg="http://www.w3.org/2000/svg"><defs
   id="defs199"><linearGradient
     inkscape:collect="always"
     id="linearGradient4101"><stop
       style="stop-color:#00ff74;stop-opacity:1;"
       offset="0"
       id="stop4097" /><stop
       style="stop-color:#000000;stop-opacity:1;"
       offset="1"
       id="stop4099" /></linearGradient><linearGradient
     inkscape:collect="always"
     id="linearGradient5827"><stop
       style="stop-color:#e0e0e0;stop-opacity:1;"
       offset="0"
       id="stop5823" /><stop
       style="stop-color:#484848;stop-opacity:1;"
       offset="1"
       id="stop5825" /></linearGradient><linearGradient
     inkscape:collect="always"
     id="linearGradient2982"><stop
       style="stop-color:#aeaeae;stop-opacity:1;"
       offset="0"
       id="stop2978" /><stop
       style="stop-color:#ffffff;stop-opacity:1;"
       offset="0.89296639"
       id="stop2980" /></linearGradient><linearGradient
     inkscape:collect="always"
     xlink:href="#linearGradient2982"
     id="linearGradient2984"
     x1="238.63107"
     y1="95.589973"
     x2="237.94337"
     y2="420.18326"
     gradientUnits="userSpaceOnUse" /><linearGradient
     inkscape:collect="always"
     xlink:href="#linearGradient5827"
     id="linearGradient5829"
     x1="161.26509"
     y1="110.02589"
     x2="163.87059"
     y2="476.2879"
     gradientUnits="userSpaceOnUse"
     gradientTransform="matrix(0.92303883,0,0,0.67429942,140.44547,124.55591)" /><linearGradient
     inkscape:collect="always"
     xlink:href="#linearGradient4101"
     id="linearGradient4103"
     x1="6.6708703"
     y1="264.70355"
     x2="360.37912"
     y2="264.70355"
     gradientUnits="userSpaceOnUse" /><linearGradient
     inkscape:collect="always"
     xlink:href="#linearGradient2982-9"
     id="linearGradient4863"
     gradientUnits="userSpaceOnUse"
     x1="238.63107"
     y1="95.589973"
     x2="237.94337"
     y2="420.18326"
     gradientTransform="matrix(0.99583936,0,0,1.0002108,128.40146,44.36463)" /><linearGradient
     inkscape:collect="always"
     id="linearGradient2982-9"><stop
       style="stop-color:#aeaeae;stop-opacity:1;"
       offset="0"
       id="stop2978-9" /><stop
       style="stop-color:#ffffff;stop-opacity:1;"
       offset="0.89296639"
       id="stop2980-8" /></linearGradient><linearGradient
     inkscape:collect="always"
     xlink:href="#linearGradient4101"
     id="linearGradient6910"
     gradientUnits="userSpaceOnUse"
     x1="6.6708703"
     y1="264.70355"
     x2="360.37912"
     y2="264.70355" /><linearGradient
     inkscape:collect="always"
     xlink:href="#linearGradient4101"
     id="linearGradient6912"
     gradientUnits="userSpaceOnUse"
     x1="6.6708703"
     y1="264.70355"
     x2="360.37912"
     y2="264.70355" /></defs><sodipodi:namedview
   id="namedview197"
   pagecolor="#ffffff"
   bordercolor="#666666"
   borderopacity="1.0"
   inkscape:showpageshadow="2"
   inkscape:pageopacity="0.0"
   inkscape:pagecheckerboard="true"
   inkscape:deskcolor="#d1d1d1"
   showgrid="false"
   inkscape:zoom="0.4609375"
   inkscape:cx="-633.49153"
   inkscape:cy="1432.9492"
   inkscape:window-width="3571"
   inkscape:window-height="2126"
   inkscape:window-x="258"
   inkscape:window-y="-11"
   inkscape:window-maximized="1"
   inkscape:current-layer="Capa_1" />
<path
   id="rect5821"
   style="fill:url(#linearGradient5829);stroke-width:0.500156"
   d="m 144.31312,144.68496 90.82008,-0.39055 21.15066,51.29091 247.22598,0.34393 2.0545,254.15783 -360.56638,0.68785 z"
   sodipodi:nodetypes="ccccccc" /><g
   id="g194"
   style="fill:#ffffff"
   transform="matrix(0.99583936,0,0,1.0002108,128.9043,44.259954)">
	<path
   d="m 382.237,420.524 c 11.278,0 24.519,-7.294 29.342,-17.236 l 93.815,-177.539 c 5.615,-10.802 -2.548,-17.239 -17.236,-17.239 H 393.42 v -42.421 c 0,-14.641 -11.91,-26.551 -26.551,-26.551 H 134.943 L 117.736,94.371 c -1.791,-4.69 -6.289,-7.793 -11.313,-7.793 H 12.335 c -3.218,0 -6.312,1.283 -8.588,3.57 -2.27,2.288 -3.535,5.379 -3.517,8.606 L 0.46,166.089 0,394.049 C 0,408.69 11.913,420.6 26.554,420.6 M 369.209,208.516 H 162.634 c -9.522,0 -18.527,7.696 -23.291,17.239 L 54.994,396.39 h -28.44 c -1.289,0 -2.344,-1.052 -2.344,-2.341 V 166.024 l -0.012,-55.23 h 73.884 l 17.209,45.164 c 1.791,4.69 6.286,7.796 11.31,7.796 H 366.87 c 1.288,0 2.34,1.052 2.34,2.341 v 42.421 z"
   id="path192"
   style="fill:url(#linearGradient2984);fill-opacity:1"
   sodipodi:nodetypes="cccscssccssccccccsccssccccssscc" />
</g>
<g
   id="g6"
   transform="matrix(-0.81377861,-0.88048462,0.75237689,-0.70149479,131.82856,505.03308)"
   style="fill:url(#linearGradient4103);fill-opacity:1">
	<g
   id="g4"
   style="fill:url(#linearGradient6912);fill-opacity:1">
		<path
   d="M 243.02303,113.76512 C 416.84408,298.0941 142.20302,261.17 142.20302,261.17 l 13.292,-13.512 c 5.072,-5.032 7.856,-11.904 7.856,-19.064 0,-7.176 -2.788,-13.972 -7.856,-19.008 l -16.116,-16.056 c -10.476,-10.416 -27.536,-10.436 -38.02,-0.02 l -86.839996,86.296 c -5.0800003,5.052 -7.8720003,11.792 -7.8480003,18.976 -0.024,7.196 2.768,13.948 7.8480003,18.996 l 90.607996,90.052 c 5.244,5.216 12.128,7.812 19.012,7.812 6.884,0 13.768,-2.6 19.008,-7.812 l 16.112,-16.012 c 5.068,-5.04 7.864,-11.76 7.856,-18.928 0,-7.172 -2.788,-13.384 -7.856,-18.412 l -17.068,-16.456 C 361.39583,338.014 450.628,239.89683 243.02303,113.76512 Z"
   id="path2"
   style="fill:url(#linearGradient6910);fill-opacity:1"
   sodipodi:nodetypes="cccscccccccscccccc" />
	</g>
</g><path
   d="m 509.04812,464.97728 c 11.23106,0 24.41698,-7.29554 29.21991,-17.23963 l 93.42469,-177.57643 c 5.59163,-10.80428 -2.53741,-17.24263 -17.16429,-17.24263 H 520.1846 l -229.8258,0.006 c -9.48239,0 -18.44992,7.69762 -23.1941,17.24263 L 183.16665,440.8382"
   style="fill:url(#linearGradient4863);fill-opacity:1;stroke-width:0.998023"
   id="path4839"
   sodipodi:nodetypes="cccscccc" /></svg>
