<?xml version="1.0" encoding="UTF-8" standalone="no"?>
<!-- Uploaded to: SVG Repo, www.svgrepo.com, Generator: SVG Repo Mixer Tools -->

<svg
   fill="#000000"
   version="1.1"
   id="Capa_1"
   width="800"
   height="800"
   viewBox="0 0 507.177 507.17701"
   xml:space="preserve"
   sodipodi:docname="gotofolder.svg"
   inkscape:version="1.2 (dc2aedaf03, 2022-05-15)"
   xmlns:inkscape="http://www.inkscape.org/namespaces/inkscape"
   xmlns:sodipodi="http://sodipodi.sourceforge.net/DTD/sodipodi-0.dtd"
   xmlns:xlink="http://www.w3.org/1999/xlink"
   xmlns="http://www.w3.org/2000/svg"
   xmlns:svg="http://www.w3.org/2000/svg"><defs
   id="defs199"><linearGradient
     inkscape:collect="always"
     xlink:href="#linearGradient4483"
     id="linearGradient4477"
     gradientUnits="userSpaceOnUse"
     x1="-599.51184"
     y1="-154.97919"
     x2="-236.85725"
     y2="-154.97919"
     gradientTransform="matrix(-1.2000106,0,0,1.2000106,-729.06781,335.30104)" /><linearGradient
     inkscape:collect="always"
     id="linearGradient4483"><stop
       style="stop-color:#808080;stop-opacity:1;"
       offset="0"
       id="stop4479" /><stop
       style="stop-color:#ffffff;stop-opacity:1;"
       offset="1"
       id="stop4481" /></linearGradient><linearGradient
     inkscape:collect="always"
     xlink:href="#linearGradient4489"
     id="linearGradient4475"
     gradientUnits="userSpaceOnUse"
     x1="-599.51202"
     y1="-154.97919"
     x2="-236.85725"
     y2="-154.97919"
     gradientTransform="matrix(-1.2000101,0,0,-1.2000101,-729.06769,83.199369)" /><linearGradient
     inkscape:collect="always"
     id="linearGradient4489"><stop
       style="stop-color:#333333;stop-opacity:1;"
       offset="0"
       id="stop4485" /><stop
       style="stop-color:#808080;stop-opacity:1;"
       offset="1"
       id="stop4487" /></linearGradient></defs><sodipodi:namedview
   id="namedview197"
   pagecolor="#ffffff"
   bordercolor="#666666"
   borderopacity="1.0"
   inkscape:showpageshadow="2"
   inkscape:pageopacity="0.0"
   inkscape:pagecheckerboard="true"
   inkscape:deskcolor="#d1d1d1"
   showgrid="false"
   inkscape:zoom="0.92187499"
   inkscape:cx="974.64408"
   inkscape:cy="786.98306"
   inkscape:window-width="3596"
   inkscape:window-height="2126"
   inkscape:window-x="233"
   inkscape:window-y="-11"
   inkscape:window-maximized="1"
   inkscape:current-layer="Capa_1" />
<path
   id="rect5821"
   style="fill:#cccccc;fill-opacity:1;stroke-width:0.426054"
   d="m 94.28148,131.44427 77.36438,-0.33269 18.01702,43.69177 210.59752,0.29297 1.75011,216.50237 -307.14566,0.58593 z"
   sodipodi:nodetypes="ccccccc" /><g
   id="g194"
   style="fill:#000000"
   transform="matrix(0.84829798,0,0,0.85202176,-89.900877,-317.30409)">
	<path
   id="path192"
   style="fill:#000000;fill-opacity:1"
   d="m 600.87006,732.12338 -23.52634,0.0248 -342.85469,0.36272 -24.01251,0.026 z"
   sodipodi:nodetypes="ccccc" /><path
   id="path31641"
   style="fill:#000000;fill-opacity:1"
   d="m 216.75365,521.22891 c -3.218,0 -6.31092,1.28329 -8.58691,3.57029 -2.27,2.288 -3.53558,5.37933 -3.51758,8.60632 l 0.23003,67.33535 -0.26236,229.03063 20.90494,-0.026 V 600.67526 l -0.0124,-60.0434 h 76.99155 l 20.19412,44.26498 c 1.791,4.69 6.2872,7.79546 11.3112,7.79546 h 237.16053 c 1.28799,0 2.34007,2.34099 2.34007,2.34099 l 0.10818,48.4569 22.30557,-0.0248 -0.0347,-42.72456 c 0.31988,-14.63753 -9.9573,-26.55185 -24.59829,-26.55185 H 339.36268 l -17.20739,-45.16713 c -1.791,-4.68999 -6.28969,-7.79298 -11.31368,-7.79298 z"
   sodipodi:nodetypes="ccccccccccssccccscccc" />
</g>
<g
   id="g6943"
   transform="matrix(0.68715907,0,0,0.68715907,182.32674,123.50224)"
   style="stroke-width:4.61298762;stroke-dasharray:none"><path
     d="m -262.4523,182.84233 h 118.5445 c 0,0 -6.63829,-27.64163 -26.35585,-93.581131 C -119.19527,174.74147 -11.012861,209.3867 -11.012861,209.3867 H -262.4523 Z"
     id="path2-1-8-2"
     style="font-variation-settings:normal;fill:url(#linearGradient4477);fill-opacity:1;stroke:#000000;stroke-width:4.61298762;stroke-linecap:butt;stroke-linejoin:round;stroke-miterlimit:4;stroke-dasharray:none;stroke-dashoffset:0;stroke-opacity:1;stop-color:#000000"
     sodipodi:nodetypes="cccccc" /><path
     d="m -262.45229,235.65801 h 118.54436 c 0,0 -6.63828,27.64162 -26.35584,93.58109 51.06836,-85.48023 159.250933,-120.12545 159.250933,-120.12545 H -262.45229 Z"
     id="path2-1-8-6"
     style="font-variation-settings:normal;fill:url(#linearGradient4475);fill-opacity:1;stroke:#000000;stroke-width:4.61298762;stroke-linecap:butt;stroke-linejoin:round;stroke-miterlimit:4;stroke-dasharray:none;stroke-dashoffset:0;stroke-opacity:1;stop-color:#000000"
     sodipodi:nodetypes="cccccc" /></g><path
   d="m 407.1698,396.81936 60.18584,-151.4595 c 5.00252,-9.20354 -2.27483,-15.02459 -15.35588,-14.68799 l -64.39197,1.65693 -205.61177,0.004 c -8.48334,0 -15.20094,9.45677 -19.44527,17.58761 l -64.2012,135.8194"
   style="fill:#ffffff;fill-opacity:1;stroke:none;stroke-width:16.6034;stroke-linecap:round;stroke-linejoin:round;stroke-dasharray:none;stroke-opacity:1"
   id="path4839-7"
   sodipodi:nodetypes="ccscccc" /><path
   d="m 91.87897,388.32774 321.20418,-0.81302 52.78131,-144.64014 c 4.76319,-9.20354 -2.16147,-14.688 -14.62127,-14.688 h -80.36605 l -195.77533,0.004 c -8.07749,0 -14.47372,9.45678 -18.51501,17.58761 L 95.45698,381.59758"
   style="fill:none;fill-opacity:1;stroke:#000000;stroke-width:16.2013;stroke-linecap:round;stroke-linejoin:round;stroke-dasharray:none;stroke-opacity:1"
   id="path4839"
   sodipodi:nodetypes="cccscccc" /></svg>
