<?xml version="1.0" encoding="UTF-8" standalone="no"?>
<!-- Uploaded to: SVG Repo, www.svgrepo.com, Generator: SVG Repo Mixer Tools -->

<svg
   fill="#000000"
   version="1.1"
   id="Capa_1"
   width="800"
   height="800"
   viewBox="0 0 507.177 507.177"
   xml:space="preserve"
   sodipodi:docname="linkcopy.svg"
   inkscape:version="1.2 (dc2aedaf03, 2022-05-15)"
   xmlns:inkscape="http://www.inkscape.org/namespaces/inkscape"
   xmlns:sodipodi="http://sodipodi.sourceforge.net/DTD/sodipodi-0.dtd"
   xmlns="http://www.w3.org/2000/svg"
   xmlns:svg="http://www.w3.org/2000/svg"><defs
   id="defs199" /><sodipodi:namedview
   id="namedview197"
   pagecolor="#ffffff"
   bordercolor="#666666"
   borderopacity="1.0"
   inkscape:showpageshadow="2"
   inkscape:pageopacity="0.0"
   inkscape:pagecheckerboard="true"
   inkscape:deskcolor="#d1d1d1"
   showgrid="false"
   inkscape:zoom="0.5"
   inkscape:cx="-351"
   inkscape:cy="803"
   inkscape:window-width="3596"
   inkscape:window-height="2126"
   inkscape:window-x="233"
   inkscape:window-y="-11"
   inkscape:window-maximized="1"
   inkscape:current-layer="Capa_1" />

<path
   d="m 313.23178,244.43548 c 5.10791,36.7048 -22.14627,73.26408 -60.87361,81.65657 L 140.16349,350.4065 C 101.43624,358.79905 65.900784,335.84754 60.792506,299.14218 55.68427,262.43677 82.938607,225.87871 121.6658,217.4861 l 56.09755,-12.15756"
   stroke="#1c274c"
   stroke-width="12.8195"
   stroke-linecap="round"
   id="path3009"
   style="fill:none;stroke:#cccccc;stroke-width:36.05204307;stroke-linejoin:miter;stroke-dasharray:none;stroke-opacity:1"
   inkscape:transform-center-x="114.23832"
   inkscape:transform-center-y="49.610642" /><path
   d="m 195.82034,265.39728 c -6.00849,-36.55648 20.33807,-73.83087 58.84643,-83.25381 l 111.56022,-27.29966 c 38.50827,-9.42304 74.59622,12.57292 80.60509,49.12998 6.00881,36.55708 -20.33795,73.83025 -58.8462,83.25328 l -55.78024,13.6502"
   stroke="#1c274c"
   stroke-width="12.8195"
   stroke-linecap="round"
   id="path3009-7-6"
   style="fill:none;stroke:#333333;stroke-width:36.05204307;stroke-linejoin:miter;stroke-dasharray:none;stroke-opacity:1"
   inkscape:transform-center-x="-42.78671"
   inkscape:transform-center-y="-2.4136554" /><path
   d="m 299.69057,238.45085 c 5.10791,36.70479 -22.14627,73.26407 -60.87361,81.65657 l -112.19468,24.31445 c -38.727246,8.39255 -74.262701,-14.55897 -79.370977,-51.26433 -5.108247,-36.7054 22.1461,-73.26346 60.873297,-81.65608 l 56.09755,-12.15755"
   stroke="#1c274c"
   stroke-width="12.8195"
   stroke-linecap="round"
   id="path3009-6"
   style="fill:none;stroke:#333333;stroke-width:36.05204307;stroke-linejoin:miter;stroke-dasharray:none;stroke-opacity:1"
   inkscape:transform-center-x="114.23832"
   inkscape:transform-center-y="49.610641" /><path
   d="m 208.66895,272.50767 c -6.0085,-36.55647 20.33808,-73.83087 58.84643,-83.25382 l 111.56023,-27.29964 c 38.50826,-9.42305 74.59621,12.57292 80.60509,49.12996 6.0088,36.55707 -20.33796,73.83025 -58.84621,83.25329 l -55.78025,13.6502"
   stroke="#1c274c"
   stroke-width="12.8195"
   stroke-linecap="round"
   id="path3009-7"
   style="fill:none;stroke:#cccccc;stroke-width:36.05204307;stroke-linejoin:miter;stroke-dasharray:none;stroke-opacity:1"
   inkscape:transform-center-x="-42.786715"
   inkscape:transform-center-y="-2.4136514" /></svg>
