<?xml version="1.0" encoding="UTF-8" standalone="no"?>
<!-- Uploaded to: SVG Repo, www.svgrepo.com, Generator: SVG Repo Mixer Tools -->

<svg
   fill="#000000"
   version="1.1"
   id="Capa_1"
   width="1000"
   height="730"
   viewBox="0 0 633.97125 462.79901"
   xml:space="preserve"
   sodipodi:docname="linkcopy.svg"
   inkscape:version="1.2 (dc2aedaf03, 2022-05-15)"
   xmlns:inkscape="http://www.inkscape.org/namespaces/inkscape"
   xmlns:sodipodi="http://sodipodi.sourceforge.net/DTD/sodipodi-0.dtd"
   xmlns:xlink="http://www.w3.org/1999/xlink"
   xmlns="http://www.w3.org/2000/svg"
   xmlns:svg="http://www.w3.org/2000/svg"><defs
   id="defs199"><linearGradient
     inkscape:collect="always"
     id="linearGradient2658"><stop
       style="stop-color:#ffdc00;stop-opacity:1;"
       offset="0.35474005"
       id="stop2654" /><stop
       style="stop-color:#ff6500;stop-opacity:1;"
       offset="1"
       id="stop2656" /></linearGradient><linearGradient
     inkscape:collect="always"
     id="linearGradient8924"><stop
       style="stop-color:#00800f;stop-opacity:1;"
       offset="0.48929664"
       id="stop8920" /><stop
       style="stop-color:#0070ca;stop-opacity:1;"
       offset="0.58409786"
       id="stop8922" /></linearGradient><linearGradient
     inkscape:collect="always"
     xlink:href="#linearGradient8924"
     id="linearGradient8926"
     x1="201.23668"
     y1="268.29968"
     x2="199.1004"
     y2="26.917822"
     gradientUnits="userSpaceOnUse"
     gradientTransform="matrix(1.2892101,0.00262531,-0.00262531,1.2892101,71.016147,5.7167451)" /><radialGradient
     inkscape:collect="always"
     xlink:href="#linearGradient2658"
     id="radialGradient2660"
     cx="179.67982"
     cy="138.78029"
     fx="179.67982"
     fy="138.78029"
     r="48.788147"
     gradientTransform="matrix(1.7152583,2.6321203e-8,-2.5259711e-8,1.6460846,15.791315,-59.239868)"
     gradientUnits="userSpaceOnUse" /></defs><sodipodi:namedview
   id="namedview197"
   pagecolor="#ffffff"
   bordercolor="#666666"
   borderopacity="1.0"
   inkscape:showpageshadow="2"
   inkscape:pageopacity="0.0"
   inkscape:pagecheckerboard="true"
   inkscape:deskcolor="#d1d1d1"
   showgrid="false"
   inkscape:zoom="2"
   inkscape:cx="621.5"
   inkscape:cy="333.75"
   inkscape:window-width="3602"
   inkscape:window-height="2126"
   inkscape:window-x="227"
   inkscape:window-y="-11"
   inkscape:window-maximized="1"
   inkscape:current-layer="Capa_1" />
<path
   id="rect8138"
   style="fill:url(#linearGradient8926);fill-opacity:1;stroke-width:1.01992"
   d="M 190.30491,38.810925 397.9466,37.129182 480.00972,95.734936 473.82965,420.72235 192.0818,419.85152 Z"
   sodipodi:nodetypes="cccccc" />
<path
   style="fill:#000000;fill-opacity:1;stroke-width:0.883931"
   d="m 418.51458,87.272952 32.74077,0.06668 -32.67895,-30.428442 z"
   id="path1765"
   sodipodi:nodetypes="cccc" /><ellipse
   style="fill:url(#radialGradient2660);fill-opacity:1;stroke:#000000;stroke-width:5.46723;stroke-dasharray:none;stroke-dashoffset:0;stroke-opacity:1"
   id="path2652"
   cx="323.98694"
   cy="170.13673"
   rx="77.987259"
   ry="75.479607"
   transform="rotate(0.11667606)" /><path
   style="fill:#000000;fill-opacity:1;stroke-width:0.883931"
   d="m 170.04311,371.77924 c -0.70181,-81.62048 0.66484,-326.48135 0.66484,-326.48135 0.0252,-12.354371 11.8224,-22.370145 26.28933,-22.340692 l 210.17006,0.427997 c 3.36673,0.0069 6.57596,1.215196 8.84644,3.333592 l 67.81857,63.119375 c 2.03263,1.900732 3.16368,4.385851 3.16404,6.958464 l 0.0496,350.335444 -25.90986,-0.14633 3.78836,-336.14519 c -0.003,-2.57926 -2.44533,-4.67929 -5.47231,-4.68547 l -52.00626,-0.10607 c -6.0865,-0.0124 -11.02751,-4.23777 -11.01696,-9.420525 l 0.10137,-49.782447 c 0.005,-2.579952 -2.44516,-4.67911 -5.47215,-4.685282 L 196.9724,41.765564 c -2.31881,-0.0047 -4.20928,1.600632 -4.2133,3.577228 l -0.62305,372.571748 269.90607,0.5229 -0.90389,28.54453 -285.92952,0.0125 c 0.001,-0.005 -5.09534,-0.3337 -5.1656,-8.59543 z"
   id="path7760"
   sodipodi:nodetypes="ccssccscccssssccccccccc" /><path
   d="m 369.43431,255.01848 c 5.12713,36.8429 -22.22961,73.53974 -61.10269,81.96381 l -112.61688,24.40594 c -38.87299,8.42413 -74.54217,-14.61375 -79.66967,-51.45722 -5.12746,-36.84351 22.22944,-73.53913 61.10237,-81.96332 l 56.30865,-12.2033"
   stroke="#1c274c"
   stroke-width="12.8195"
   stroke-linecap="round"
   id="path3009"
   style="fill:none;stroke:#ffffff;stroke-width:29.95133765;stroke-linejoin:miter;stroke-dasharray:none;stroke-opacity:1"
   inkscape:transform-center-x="114.66822"
   inkscape:transform-center-y="49.797335" /><path
   d="m 365.74154,241.81177 c 5.12713,36.8429 -22.22961,73.53974 -61.10269,81.96381 l -112.61688,24.40594 c -38.87299,8.42413 -74.54217,-14.61375 -79.66967,-51.45722 -5.12747,-36.84351 22.22944,-73.53913 61.10237,-81.96332 l 56.30865,-12.2033"
   stroke="#1c274c"
   stroke-width="12.8195"
   stroke-linecap="round"
   id="path3009-6"
   style="fill:none;stroke:#000000;stroke-width:29.9513;stroke-linejoin:miter;stroke-dasharray:none;stroke-opacity:1"
   inkscape:transform-center-x="114.66822"
   inkscape:transform-center-y="49.797335" /><path
   d="m 270.68462,262.79002 c -6.03111,-36.69403 20.41461,-74.10867 59.06788,-83.56707 l 111.98004,-27.40237 c 38.65318,-9.45851 74.87693,12.62022 80.90842,49.31483 6.03142,36.69462 -20.41449,74.10805 -59.06765,83.56654 l -55.99016,13.70156"
   stroke="#1c274c"
   stroke-width="12.8195"
   stroke-linecap="round"
   id="path3009-7-6"
   style="fill:none;stroke:#000000;stroke-width:29.9513;stroke-linejoin:miter;stroke-dasharray:none;stroke-opacity:1"
   inkscape:transform-center-x="-42.947728"
   inkscape:transform-center-y="-2.4227373" /><path
   d="m 274.37739,275.99673 c -6.03111,-36.69403 20.41461,-74.10867 59.06788,-83.56707 l 111.98004,-27.40237 c 38.65318,-9.45851 74.87693,12.62022 80.90842,49.31483 6.03142,36.69462 -20.41449,74.10805 -59.06765,83.56654 l -55.99016,13.70156"
   stroke="#1c274c"
   stroke-width="12.8195"
   stroke-linecap="round"
   id="path3009-7"
   style="fill:none;stroke:#ffffff;stroke-width:29.95133765;stroke-linejoin:miter;stroke-dasharray:none;stroke-opacity:1"
   inkscape:transform-center-x="-42.947728"
   inkscape:transform-center-y="-2.4227373" /></svg>
