<?xml version="1.0" encoding="UTF-8" standalone="no"?>
<!-- Uploaded to: SVG Repo, www.svgrepo.com, Generator: SVG Repo Mixer Tools -->

<svg
   fill="#000000"
   version="1.1"
   id="Capa_1"
   width="1000"
   height="730"
   viewBox="0 0 633.97125 462.79901"
   xml:space="preserve"
   sodipodi:docname="movefile.svg"
   inkscape:version="1.2 (dc2aedaf03, 2022-05-15)"
   xmlns:inkscape="http://www.inkscape.org/namespaces/inkscape"
   xmlns:sodipodi="http://sodipodi.sourceforge.net/DTD/sodipodi-0.dtd"
   xmlns:xlink="http://www.w3.org/1999/xlink"
   xmlns="http://www.w3.org/2000/svg"
   xmlns:svg="http://www.w3.org/2000/svg"><defs
   id="defs199"><linearGradient
     inkscape:collect="always"
     id="linearGradient5224"><stop
       style="stop-color:#595959;stop-opacity:1;"
       offset="0"
       id="stop5220" /><stop
       style="stop-color:#595959;stop-opacity:0;"
       offset="1"
       id="stop5222" /></linearGradient><rect
     x="151"
     y="484.5"
     width="660.5"
     height="174"
     id="rect4413" /><linearGradient
     inkscape:collect="always"
     id="linearGradient2658"><stop
       style="stop-color:#ffe66e;stop-opacity:1;"
       offset="0.35474005"
       id="stop2654" /><stop
       style="stop-color:#ff9852;stop-opacity:1;"
       offset="1"
       id="stop2656" /></linearGradient><linearGradient
     inkscape:collect="always"
     id="linearGradient8924"><stop
       style="stop-color:#80ab85;stop-opacity:1;"
       offset="0.48929664"
       id="stop8920" /><stop
       style="stop-color:#50a1df;stop-opacity:1;"
       offset="0.58409786"
       id="stop8922" /></linearGradient><linearGradient
     inkscape:collect="always"
     xlink:href="#linearGradient8924"
     id="linearGradient8926"
     x1="201.23668"
     y1="268.29968"
     x2="199.1004"
     y2="26.917822"
     gradientUnits="userSpaceOnUse"
     gradientTransform="matrix(1.2892101,0.00262531,-0.00262531,1.2892101,185.76494,6.0337307)" /><radialGradient
     inkscape:collect="always"
     xlink:href="#linearGradient2658"
     id="radialGradient2660"
     cx="179.67982"
     cy="138.78029"
     fx="179.67982"
     fy="138.78029"
     r="48.788147"
     gradientTransform="matrix(1.7152583,2.6321203e-8,-2.5259711e-8,1.6460846,130.54052,-59.156555)"
     gradientUnits="userSpaceOnUse" /><radialGradient
     inkscape:collect="always"
     xlink:href="#linearGradient2658"
     id="radialGradient2660-0"
     cx="179.67982"
     cy="138.78029"
     fx="179.67982"
     fy="138.78029"
     r="48.788147"
     gradientTransform="matrix(1.7152583,2.6321203e-8,-2.5259711e-8,1.6460846,-144.65063,-59.071397)"
     gradientUnits="userSpaceOnUse" /><linearGradient
     inkscape:collect="always"
     xlink:href="#linearGradient8924-2"
     id="linearGradient8926-1"
     x1="201.23668"
     y1="268.29968"
     x2="199.1004"
     y2="26.917822"
     gradientUnits="userSpaceOnUse"
     gradientTransform="matrix(1.2892101,0.00262531,-0.00262531,1.2892101,-89.425813,5.5584982)" /><linearGradient
     inkscape:collect="always"
     id="linearGradient8924-2"><stop
       style="stop-color:#62ab6b;stop-opacity:1;"
       offset="0.48929664"
       id="stop8920-2" /><stop
       style="stop-color:#50a1df;stop-opacity:1;"
       offset="0.58409786"
       id="stop8922-2" /></linearGradient><filter
     inkscape:collect="always"
     style="color-interpolation-filters:sRGB"
     id="filter2620"
     x="-0.014023402"
     y="-0.010486875"
     width="1.0280468"
     height="1.0209738"><feGaussianBlur
       inkscape:collect="always"
       stdDeviation="1.8534456"
       id="feGaussianBlur2622" /></filter><filter
     inkscape:collect="always"
     style="color-interpolation-filters:sRGB"
     id="filter2624"
     x="-0.046045242"
     y="-0.047574999"
     width="1.0920905"
     height="1.09515"><feGaussianBlur
       inkscape:collect="always"
       stdDeviation="1.8534456"
       id="feGaussianBlur2626" /></filter><filter
     inkscape:collect="always"
     style="color-interpolation-filters:sRGB"
     id="filter2628"
     x="-0.13586332"
     y="-0.14618789"
     width="1.2717266"
     height="1.2923758"><feGaussianBlur
       inkscape:collect="always"
       stdDeviation="1.8534456"
       id="feGaussianBlur2630" /></filter><filter
     inkscape:collect="always"
     style="color-interpolation-filters:sRGB"
     id="filter2632"
     x="-0.01535449"
     y="-0.011596321"
     width="1.030709"
     height="1.0231926"><feGaussianBlur
       inkscape:collect="always"
       stdDeviation="1.8534456"
       id="feGaussianBlur2634" /></filter><linearGradient
     inkscape:collect="always"
     xlink:href="#linearGradient4813"
     id="linearGradient4815"
     x1="473.78653"
     y1="297.06668"
     x2="-56.418449"
     y2="298.0101"
     gradientUnits="userSpaceOnUse"
     gradientTransform="matrix(0.51843516,0,0,0.51843516,117.08186,64.216062)" /><linearGradient
     inkscape:collect="always"
     id="linearGradient4813"><stop
       style="stop-color:#000000;stop-opacity:1;"
       offset="0"
       id="stop4809" /><stop
       style="stop-color:#00ff27;stop-opacity:1;"
       offset="1"
       id="stop4811" /></linearGradient><linearGradient
     inkscape:collect="always"
     xlink:href="#linearGradient5224"
     id="linearGradient5226"
     x1="131.46974"
     y1="350.23955"
     x2="441.1833"
     y2="350.23955"
     gradientUnits="userSpaceOnUse" /></defs><sodipodi:namedview
   id="namedview197"
   pagecolor="#ffffff"
   bordercolor="#666666"
   borderopacity="1.0"
   inkscape:showpageshadow="2"
   inkscape:pageopacity="0.0"
   inkscape:pagecheckerboard="true"
   inkscape:deskcolor="#d1d1d1"
   showgrid="false"
   inkscape:zoom="2"
   inkscape:cx="616.75"
   inkscape:cy="382.75"
   inkscape:window-width="3602"
   inkscape:window-height="2126"
   inkscape:window-x="227"
   inkscape:window-y="-11"
   inkscape:window-maximized="1"
   inkscape:current-layer="Capa_1" />
<path
   id="rect8138-1"
   style="fill:url(#linearGradient8926-1);fill-opacity:1;stroke-width:1.01992;filter:url(#filter2632);opacity:0.5"
   d="M 29.862957,38.652678 237.50465,36.970928 319.56777,95.576688 313.3877,420.5641 31.639847,419.69327 Z"
   sodipodi:nodetypes="cccccc" /><path
   style="fill:#000000;fill-opacity:0.15226337;stroke-width:0.883931;filter:url(#filter2628);opacity:0.5"
   d="m 258.07263,87.114698 32.74077,0.0667 -32.67895,-30.42844 z"
   id="path1765-0"
   sodipodi:nodetypes="cccc" /><ellipse
   style="fill:url(#radialGradient2660-0);fill-opacity:1;stroke:#595959;stroke-width:5.46723;stroke-dasharray:none;stroke-dashoffset:0;stroke-opacity:1;filter:url(#filter2624);opacity:0.5"
   id="path2652-4"
   cx="163.545"
   cy="170.30521"
   rx="77.987259"
   ry="75.479607"
   transform="rotate(0.11667606)" /><path
   style="fill:#454545;fill-opacity:1;stroke-width:0.883931;filter:url(#filter2620);opacity:0.5"
   d="M 9.6011569,371.62099 C 8.8993469,290.00051 10.265997,45.139638 10.265997,45.139638 c 0.0252,-12.35437 11.8224,-22.37014 26.28933,-22.34069 l 210.170063,0.428 c 3.36673,0.007 6.57596,1.21519 8.84644,3.33359 l 67.81857,63.11937 c 2.03263,1.90073 3.16368,4.38585 3.16404,6.95847 l 0.0496,350.335442 -25.90986,-0.14633 3.78836,-336.14519 c -0.003,-2.57926 -2.44533,-4.67929 -5.47231,-4.68547 l -52.00626,-0.10607 c -6.0865,-0.0124 -11.02751,-4.23777 -11.01696,-9.420522 l 0.10137,-49.78245 c 0.005,-2.57995 -2.44516,-4.67911 -5.47215,-4.68528 l -194.085783,-0.3952 c -2.31881,-0.005 -4.20928,1.60064 -4.2133,3.57723 l -0.62305,372.571752 269.906073,0.5229 -0.90389,28.54453 -285.929523,0.0125 c 10e-4,-0.005 -5.0953401,-0.3337 -5.1656001,-8.59543 z"
   id="path7760-7"
   sodipodi:nodetypes="ccssccscccssssccccccccc" /><path
   id="rect8138"
   style="fill:url(#linearGradient8926);fill-opacity:1;stroke-width:1.01992"
   d="M 305.05371,39.127911 512.6954,37.446168 594.75852,96.051922 588.57845,421.03934 306.8306,420.16851 Z"
   sodipodi:nodetypes="cccccc" />
<path
   style="fill:#000000;fill-opacity:1;stroke-width:0.883931"
   d="m 533.26338,87.589938 32.74077,0.06668 -32.67895,-30.428442 z"
   id="path1765"
   sodipodi:nodetypes="cccc" /><ellipse
   style="fill:url(#radialGradient2660);fill-opacity:1;stroke:#595959;stroke-width:5.46723;stroke-dasharray:none;stroke-dashoffset:0;stroke-opacity:1"
   id="path2652"
   cx="438.73615"
   cy="170.22005"
   rx="77.987259"
   ry="75.479607"
   transform="rotate(0.11667606)" /><path
   style="fill:#000000;fill-opacity:1;stroke-width:0.883931"
   d="m 284.79191,372.09623 c -0.70181,-81.62048 0.66484,-326.481354 0.66484,-326.481354 0.0252,-12.354371 11.8224,-22.370145 26.28933,-22.340692 l 210.17006,0.427997 c 3.36673,0.0069 6.57596,1.215196 8.84644,3.333592 l 67.81857,63.119375 c 2.03263,1.900732 3.16368,4.385851 3.16404,6.958464 l 0.0496,350.335448 -25.90986,-0.14633 3.78836,-336.14519 c -0.003,-2.57926 -2.44533,-4.67929 -5.47231,-4.68547 L 522.19472,106.366 c -6.0865,-0.0124 -11.02751,-4.23777 -11.01696,-9.420529 l 0.10137,-49.782447 c 0.005,-2.579952 -2.44516,-4.67911 -5.47215,-4.685282 L 311.7212,42.08255 c -2.31881,-0.0047 -4.20928,1.600632 -4.2133,3.577228 l -0.62305,372.571752 269.90607,0.5229 -0.90389,28.54453 -285.92952,0.0125 c 10e-4,-0.005 -5.09534,-0.3337 -5.1656,-8.59543 z"
   id="path7760"
   sodipodi:nodetypes="ccssccscccssssccccccccc" /><g
   id="g6"
   transform="matrix(-1.0308727,0,0,-1.0308727,513.97963,477.32605)">
	<g
   id="g4">
		<path
   d="M 306.02465,199.61578 H 190.80492 l 6.89104,-7.00509 c 2.62951,-2.60877 4.07284,-6.17146 4.07284,-9.88346 0,-3.72028 -1.44541,-7.24358 -4.07284,-9.85441 l -8.3551,-8.32399 c -5.43112,-5.40002 -14.27562,-5.41039 -19.7109,-0.0108 l -45.02091,44.73889 c -2.63366,2.61914 -4.08112,6.11339 -4.06869,9.83783 -0.0122,3.73065 1.43503,7.23112 4.06869,9.84819 l 46.97437,46.68613 c 2.71867,2.70415 6.28758,4.05001 9.85649,4.05001 3.56891,0 7.13781,-1.34794 9.85442,-4.05001 l 8.35302,-8.30118 c 2.62743,-2.61292 4.07697,-6.09681 4.07282,-9.81296 0,-3.71821 -1.44539,-6.93874 -4.07282,-9.54542 l -8.84865,-8.53136 h 115.22168 z"
   id="path2"
   style="fill:url(#linearGradient4815);fill-opacity:1;stroke-width:0.518435"
   sodipodi:nodetypes="cccscccccccsccccccc" />
	</g>
</g><g
   aria-label="Move"
   id="text5195"
   style="font-size:152.153px;font-family:Gadugi;-inkscape-font-specification:Gadugi;letter-spacing:0px;word-spacing:0px;fill:#ffffff;stroke:#000000;stroke-width:6.33971"><g
     id="path17438"><path
       style="color:#000000;-inkscape-font-specification:'Gadugi Bold';stroke:none;-inkscape-stroke:none"
       d="m 238.68015,388.65414 h -23.69961 v -63.74378 q 0,-10.32679 0.89152,-22.80809 h -0.59435 q -1.85733,9.80673 -3.3432,14.11575 l -24.9626,72.43612 h -19.61348 l -25.40836,-71.69318 q -1.04011,-2.89745 -3.3432,-14.85869 h -0.66864 q 0.96581,15.75021 0.96581,27.63716 v 58.91471 h -21.6194 V 282.11733 h 35.14081 l 21.76798,63.14944 q 2.60027,7.57793 3.78897,15.23015 h 0.44576 q 2.00592,-8.84092 4.23473,-15.37874 l 21.76798,-63.00085 h 34.24928 z"
       id="path17449" /><path
       style="color:#000000;-inkscape-font-specification:'Gadugi Bold';fill:#000000;stroke:none;-inkscape-stroke:none"
       d="m 114.11523,278.94727 v 112.87695 h 27.95899 v -62.08399 c 0,-0.93932 -0.10435,-2.28963 -0.11328,-3.26367 l 23.1582,65.34766 h 24.11328 l 22.57813,-65.51758 v 65.51758 h 30.03906 V 388.6543 278.94727 h -39.67774 l -22.50781,65.14257 -0.002,0.006 c -0.42929,1.25923 -0.79641,3.0223 -1.21094,4.39649 -0.41414,-1.41861 -0.77486,-2.84077 -1.25976,-4.25391 v -0.002 l -22.50586,-65.28906 z m 6.33985,6.33984 h 29.71094 l 21.03125,61.01172 c 1.6746,4.88102 2.88954,9.77505 3.65234,14.68554 l 0.41797,2.68165 h 5.6914 l 0.56055,-2.4668 c 1.31853,-5.81131 2.70576,-10.8382 4.14453,-15.0586 l 21.02539,-60.85351 h 28.82032 v 100.19726 h -17.35938 v -60.57421 c 0,-6.7933 0.29289,-14.32315 0.88281,-22.58204 l 0.24414,-3.39648 h -6.625 l -0.48828,2.58008 c -1.22525,6.46936 -2.34488,11.11696 -3.22656,13.67383 l -24.22656,70.29882 h -15.11328 l -24.66211,-69.58789 -0.002,-0.006 c -0.47613,-1.32636 -1.68721,-6.4529 -3.21484,-14.38671 l -0.49414,-2.57227 h -6.65625 l 0.20508,3.36523 c 0.64089,10.45151 0.96094,19.60459 0.96093,27.44336 v 55.74414 h -15.27929 z"
       id="path17451" /></g><g
     id="path17440"><path
       style="color:#000000;-inkscape-font-specification:'Gadugi Bold';stroke:none;-inkscape-stroke:none"
       d="m 296.85193,390.51148 q -19.01913,0 -29.94027,-10.62396 -10.84684,-10.69826 -10.84684,-28.97445 0,-18.87054 11.2926,-29.4945 11.29261,-10.69826 30.53462,-10.69826 18.94483,0 29.71738,10.69826 10.77255,10.62396 10.77255,28.15722 0,18.94483 -11.14402,29.94026 -11.06972,10.99543 -30.38602,10.99543 z m 0.59435,-61.81216 q -8.32087,0 -12.92707,5.7206 -4.60619,5.7206 -4.60619,16.19597 0,21.91657 17.68184,21.91657 16.86462,0 16.86462,-22.51091 0,-21.32223 -17.0132,-21.32223 z"
       id="path17455" /><path
       style="color:#000000;-inkscape-font-specification:'Gadugi Bold';fill:#000000;stroke:none;-inkscape-stroke:none"
       d="m 297.89258,307.55078 c -13.41374,0 -24.53028,3.81608 -32.71094,11.56445 -0.001,10e-4 -0.003,9.7e-4 -0.004,0.002 -8.20515,7.72396 -12.2832,18.58663 -12.2832,31.79492 0,12.81121 3.91729,23.46655 11.79102,31.23242 l 0.008,0.008 0.008,0.008 c 7.93999,7.72392 18.88077,11.52148 32.15039,11.52148 13.47459,0 24.58005,-3.93351 32.61328,-11.9082 l 0.004,-0.004 c 8.07459,-7.96922 12.08398,-18.94411 12.08398,-32.19336 0,-12.33383 -3.91185,-22.71224 -11.70898,-30.40625 l -0.004,-0.004 c -7.84062,-7.78423 -18.72292,-11.61524 -31.94726,-11.61524 z m 0,6.33984 c 12.03319,0 20.95995,3.29986 27.48242,9.77735 l 0.004,0.004 0.004,0.004 c 6.56097,6.47047 9.83008,14.86076 9.83008,25.90039 0,12.00834 -3.41973,20.99258 -10.20117,27.6836 l -0.004,0.004 -0.004,0.004 c -6.72576,6.68062 -15.87629,10.07422 -28.15235,10.07422 -12.0849,0 -21.10178,-3.28389 -27.72265,-9.72071 -6.58271,-6.49746 -9.89454,-15.15725 -9.89454,-26.70898 0,-11.94804 3.44873,-20.74472 10.29493,-27.18555 l 0.004,-0.004 0.004,-0.002 c 6.87584,-6.51395 16.11494,-9.83007 28.35547,-9.83008 z m -0.44727,11.63868 c -6.27366,0 -11.73897,2.36238 -15.39453,6.90234 -3.66355,4.5499 -5.30664,10.73541 -5.30664,18.18359 0,7.73175 1.52762,13.97122 5.12305,18.42774 3.59542,4.45651 9.17974,6.66016 15.72851,6.66015 6.32672,0 11.76483,-2.33507 15.1836,-6.89843 3.41876,-4.56337 4.84961,-10.88378 4.84961,-18.78321 0,-7.52894 -1.46722,-13.60973 -4.94532,-17.96875 -3.47809,-4.35901 -8.9051,-6.52343 -15.23828,-6.52343 z m 0,6.33984 c 5.00895,0 8.09024,1.39028 10.28321,4.13867 2.19296,2.74839 3.56054,7.32781 3.56054,14.01367 0,7.10784 -1.37926,12.04216 -3.58203,14.98243 -2.20277,2.94026 -5.19498,4.35937 -10.11133,4.35937 -5.2391,0 -8.4964,-1.45178 -10.79492,-4.30078 -2.29852,-2.849 -3.71875,-7.56798 -3.71875,-14.44727 0,-6.51896 1.42822,-11.12947 3.90625,-14.20703 2.48604,-3.0875 5.63622,-4.53906 10.45703,-4.53906 z"
       id="path17457" /></g><g
     id="path17442"><path
       style="color:#000000;-inkscape-font-specification:'Gadugi Bold';stroke:none;-inkscape-stroke:none"
       d="m 426.04825,312.57764 -28.3058,76.0765 H 370.9968 l -26.96852,-76.0765 h 25.11118 l 13.22424,46.87918 q 2.2288,7.9494 2.60027,13.5214 h 0.29717 q 0.52006,-5.27483 2.74886,-13.07564 l 13.52141,-47.32494 z"
       id="path17461" /><path
       style="color:#000000;-inkscape-font-specification:'Gadugi Bold';fill:#000000;stroke:none;-inkscape-stroke:none"
       d="m 339.54102,309.4082 29.21679,82.41602 h 31.1875 l 30.66406,-82.41602 h -4.56054 -26.90821 l -13.88867,48.61133 -13.71289,-48.61133 z m 8.9746,6.33985 h 18.22461 l 12.57227,44.57031 v -0.006 c 1.44625,5.1583 2.26197,9.4823 2.48828,12.87695 l 0.19727,2.95899 h 6.13672 l 0.28125,-2.85938 c 0.31829,-3.22836 1.19066,-7.43394 2.64257,-12.51562 l 12.86328,-45.02539 h 17.56446 l -25.94727,69.73632 h -22.30273 z"
       id="path17463" /></g><g
     id="path17444"><path
       style="color:#000000;-inkscape-font-specification:'Gadugi Bold';stroke:none;-inkscape-stroke:none"
       d="m 504.42784,357.30231 h -49.62803 q 1.1887,16.56744 20.87646,16.56744 12.5556,0 22.06516,-5.94348 v 16.93891 q -10.54967,5.6463 -27.41429,5.6463 -18.42477,0 -28.60298,-10.1782 -10.1782,-10.2525 -10.1782,-28.52869 0,-18.94483 10.99543,-30.01456 10.99543,-11.06972 27.04282,-11.06972 16.64173,0 25.70554,9.88103 9.13809,9.88103 9.13809,26.81994 z m -21.76798,-14.41294 q 0,-16.34456 -13.22424,-16.34456 -5.6463,0 -9.80673,4.68049 -4.08614,4.68049 -4.97767,11.66407 z"
       id="path17467" /><path
       style="color:#000000;-inkscape-font-specification:'Gadugi Bold';fill:#000000;stroke:none;-inkscape-stroke:none"
       d="m 469.58398,307.55078 c -11.42711,0 -21.41737,4.07902 -29.29101,12.00586 -7.96744,8.02128 -11.91602,19.00492 -11.91602,32.24805 0,12.77255 3.64871,23.25839 11.09766,30.76172 l 0.004,0.004 0.004,0.004 c 7.46171,7.4617 17.97689,11.10742 30.84375,11.10742 11.59683,0 21.25748,-1.92569 28.91016,-6.02148 l 1.67578,-0.89649 v -24.55664 l -4.85156,3.03125 c -5.80801,3.63001 -12.51455,5.46094 -20.38477,5.46094 -6.118,0 -10.37252,-1.29708 -13.0918,-3.45508 -2.02836,-1.6097 -3.40365,-3.75428 -4.11914,-6.77148 h 49.13282 v -3.16993 -9.88086 c 0,-11.85758 -3.27331,-21.71351 -9.97266,-28.96289 l -0.002,-0.002 c -6.69572,-7.29813 -16.31832,-10.90625 -28.03907,-10.90625 z m 0,6.33984 c 10.46711,0 17.97988,2.97834 23.36914,8.85352 l 0.006,0.004 0.004,0.006 c 5.47901,5.92445 8.29492,13.94539 8.29492,24.66796 v 6.71094 h -49.86328 l 0.24414,3.39649 c 0.44093,6.14547 2.76437,11.31717 7.00391,14.68164 4.23953,3.36447 10.02604,4.82812 17.0332,4.82812 6.86474,0 13.19321,-1.31141 18.89649,-3.8789 v 9.63867 c -6.22474,2.92125 -14.2291,4.54297 -24.2461,4.54297 -11.69381,0 -20.24293,-3.1388 -26.35156,-9.24219 -6.12197,-6.16666 -9.25977,-14.69925 -9.25977,-26.29492 0,-12.01662 3.38306,-21.04291 10.07618,-27.78125 6.78691,-6.83278 14.82358,-10.13282 24.79296,-10.13282 z m -0.14843,9.48438 c -4.64008,0 -8.92911,2.09163 -12.17578,5.74414 l -0.01,0.0117 -0.01,0.01 c -3.16264,3.62267 -5.0723,8.17676 -5.73242,13.34766 l -0.45703,3.57031 h 34.7793 v -3.16992 c 0,-5.87563 -1.15771,-10.72453 -4.01172,-14.25195 -2.85401,-3.52742 -7.32177,-5.26172 -12.38281,-5.26172 z m 0,6.33984 c 3.75511,0 5.89905,0.9894 7.45312,2.91016 1.16278,1.43714 1.87152,3.9628 2.24024,7.09375 h -20.40039 c 0.7404,-2.42774 1.73431,-4.6216 3.28125,-6.39648 2.29645,-2.57841 4.54239,-3.60743 7.42578,-3.60743 z"
       id="path17469" /></g></g></svg>
