<?xml version="1.0" encoding="UTF-8" standalone="no"?>
<!-- Uploaded to: SVG Repo, www.svgrepo.com, Generator: SVG Repo Mixer Tools -->

<svg
   fill="#000000"
   version="1.1"
   id="Capa_1"
   width="800"
   height="800"
   viewBox="0 0 507.177 507.17701"
   xml:space="preserve"
   sodipodi:docname="move.svg"
   inkscape:version="1.2 (dc2aedaf03, 2022-05-15)"
   xmlns:inkscape="http://www.inkscape.org/namespaces/inkscape"
   xmlns:sodipodi="http://sodipodi.sourceforge.net/DTD/sodipodi-0.dtd"
   xmlns:xlink="http://www.w3.org/1999/xlink"
   xmlns="http://www.w3.org/2000/svg"
   xmlns:svg="http://www.w3.org/2000/svg"><defs
   id="defs199"><linearGradient
     inkscape:collect="always"
     id="linearGradient4489"><stop
       style="stop-color:#333333;stop-opacity:1;"
       offset="0"
       id="stop4485" /><stop
       style="stop-color:#808080;stop-opacity:1;"
       offset="1"
       id="stop4487" /></linearGradient><linearGradient
     inkscape:collect="always"
     id="linearGradient4483"><stop
       style="stop-color:#808080;stop-opacity:1;"
       offset="0"
       id="stop4479" /><stop
       style="stop-color:#ffffff;stop-opacity:1;"
       offset="1"
       id="stop4481" /></linearGradient><linearGradient
     inkscape:collect="always"
     id="linearGradient27028"><stop
       style="stop-color:#000000;stop-opacity:1;"
       offset="0"
       id="stop27026" /><stop
       style="stop-color:#808080;stop-opacity:1;"
       offset="1"
       id="stop27024" /></linearGradient><linearGradient
     inkscape:collect="always"
     id="linearGradient27006"><stop
       style="stop-color:#4d4d4d;stop-opacity:1;"
       offset="0"
       id="stop27002" /><stop
       style="stop-color:#b2b2b2;stop-opacity:1;"
       offset="1"
       id="stop27004" /></linearGradient><linearGradient
     inkscape:collect="always"
     xlink:href="#linearGradient27006"
     id="linearGradient27008"
     x1="-599.51185"
     y1="-154.97918"
     x2="-236.85726"
     y2="-154.97918"
     gradientUnits="userSpaceOnUse" /><linearGradient
     inkscape:collect="always"
     xlink:href="#linearGradient27028"
     id="linearGradient27030"
     x1="-599.51202"
     y1="-154.97918"
     x2="-236.85726"
     y2="-154.97918"
     gradientUnits="userSpaceOnUse" /><linearGradient
     inkscape:collect="always"
     xlink:href="#linearGradient4489"
     id="linearGradient4475"
     gradientUnits="userSpaceOnUse"
     x1="-599.51202"
     y1="-154.97918"
     x2="-236.85726"
     y2="-154.97918"
     gradientTransform="translate(446.22283,117.67646)" /><linearGradient
     inkscape:collect="always"
     xlink:href="#linearGradient4483"
     id="linearGradient4477"
     gradientUnits="userSpaceOnUse"
     x1="-599.51185"
     y1="-154.97918"
     x2="-236.85726"
     y2="-154.97918"
     gradientTransform="translate(446.22261,-117.67641)" /></defs><sodipodi:namedview
   id="namedview197"
   pagecolor="#ffffff"
   bordercolor="#666666"
   borderopacity="1.0"
   inkscape:showpageshadow="2"
   inkscape:pageopacity="0.0"
   inkscape:pagecheckerboard="true"
   inkscape:deskcolor="#d1d1d1"
   showgrid="false"
   inkscape:zoom="0.23046875"
   inkscape:cx="-674.71187"
   inkscape:cy="1785.4915"
   inkscape:window-width="3596"
   inkscape:window-height="2126"
   inkscape:window-x="233"
   inkscape:window-y="-11"
   inkscape:window-maximized="1"
   inkscape:current-layer="Capa_1" />
<rect
   style="fill:#ffffff;stroke:none;stroke-width:6.33971;stroke-linecap:round;stroke-linejoin:round;stroke-dasharray:none;stroke-opacity:1;paint-order:stroke fill markers;stop-color:#000000"
   id="rect2221"
   width="383.04758"
   height="420.18326"
   x="66.018974"
   y="46.075741" /><g
   style="fill:none"
   id="g2590"
   transform="matrix(35.150882,0,0,35.150882,-235.65407,-256.09928)"><path
     style="fill:#cccccc;fill-opacity:1;stroke:#ffffff;stroke-width:15.3406;stroke-linejoin:bevel;stroke-dasharray:none;stroke-opacity:1;paint-order:stroke markers fill"
     d="M 282.26744,464.05381 V 282.26744 h 165.67871 165.67872 v 181.80998 181.80997 l -9.28153,-0.21537 -9.28152,-0.21536 -51.24322,-89.22449 c -28.18376,-49.07346 -51.41147,-89.39274 -51.61711,-89.59838 -0.20564,-0.20564 -17.86565,27.60902 -39.24447,61.81037 -27.3945,43.82509 -39.15486,62.01227 -39.83346,61.60174 -0.52959,-0.32038 -10.70416,-9.38419 -22.61016,-20.1418 -11.90599,-10.75762 -21.94765,-19.5593 -22.3148,-19.5593 -0.97484,0 -14.77971,14.96608 -27.23944,29.5307 -17.13674,20.03174 -34.16968,41.56189 -47.78662,60.4037 -3.96076,5.48051 -4.06872,5.56097 -7.462,5.56097 h -3.4431 z m 123.67728,9.0382 c 7.56579,-2.83819 13.21931,-6.47108 18.9234,-12.15995 6.02778,-6.0117 10.11638,-12.69594 12.86953,-21.03973 1.75305,-5.31285 2.02474,-7.42282 2.02474,-15.72414 0,-8.30132 -0.27169,-10.41129 -2.02474,-15.72414 -4.5787,-13.87636 -13.5753,-24.45862 -25.93662,-30.50799 -8.39778,-4.10969 -13.87518,-5.38471 -23.03662,-5.36239 -8.60123,0.0209 -13.28026,1.13913 -21.74004,5.1954 -37.88872,18.16677 -38.26983,73.91838 -0.63283,92.57465 8.99176,4.45713 12.72844,5.21166 24.4108,4.9292 8.414,-0.20344 10.77904,-0.54407 15.14238,-2.18091 z"
     id="path4228"
     transform="scale(0.03125)" /><path
     d="m 19.5,20.5 h -11 v -12 h 11 z"
     stroke="#121923"
     stroke-width="1.2"
     id="path2"
     style="stroke:#000000;stroke-width:0.625;stroke-dasharray:none;stroke-opacity:1"
     sodipodi:nodetypes="ccccc" /><path
     style="fill:none;stroke:#000000;stroke-width:0.625;stroke-linecap:butt;stroke-linejoin:miter;stroke-dasharray:none;stroke-opacity:1"
     d="m 9.2861776,20.398972 c 1.1362674,-1.603659 2.2371654,-2.762739 2.2371654,-2.762739 l 1.481915,1.337666 2.358007,-3.772661 3.00891,5.238539 z"
     id="path2509"
     sodipodi:nodetypes="cccccc" /><path
     style="fill:none;stroke:#000000;stroke-width:0.625;stroke-linecap:butt;stroke-linejoin:miter;stroke-dasharray:none;stroke-opacity:1"
     d="M 12.100224,20.444753 13.81503,17.707789"
     id="path2576-5"
     sodipodi:nodetypes="cc" /><path
     id="path2630"
     style="stroke:#000000;stroke-width:0.3125;stroke-linejoin:bevel;paint-order:stroke markers fill"
     d="m 13.586336,13.254237 a 1.4253198,1.4507434 0 0 1 -1.42532,1.450744 1.4253198,1.4507434 0 0 1 -1.425319,-1.450744 1.4253198,1.4507434 0 0 1 1.425319,-1.450743 1.4253198,1.4507434 0 0 1 1.42532,1.450743 z" /><path
     style="fill:#000000;fill-opacity:1;stroke:#000000;stroke-width:21.6949;stroke-linejoin:bevel;stroke-dasharray:none;stroke-opacity:1;paint-order:stroke markers fill"
     d="m 325.60007,632.13559 c 12.30811,-15.84571 20.01801,-25.31334 32.2355,-39.58465 11.13082,-13.00196 11.41493,-13.24006 13.59099,-11.38983 3.20709,2.7269 25.65741,22.90489 28.73969,25.83078 l 2.60693,2.47466 -10.18892,16.35147 -10.18891,16.35147 h -32.29454 -32.29454 z"
     id="path2723"
     transform="scale(0.03125)" /></g>
<g
   style="fill:#000000;stroke-width:0.99996562;stroke-dasharray:none"
   id="g4087"
   transform="matrix(1.0308727,0,0,1.0308727,334.39308,150.58393)"><g
     id="g6-4-8-0"
     transform="matrix(-1.1945501,0,0,1.1945501,-253.54804,370.99219)"
     style="font-variation-settings:normal;opacity:1;fill:url(#linearGradient27008);fill-opacity:1;stroke:#000000;stroke-width:0.83710648;stroke-linecap:butt;stroke-linejoin:round;stroke-miterlimit:4;stroke-dasharray:none;stroke-dashoffset:0;stroke-opacity:1;stop-color:#000000;stop-opacity:1">
	<g
   id="g4-4-2-1"
   style="font-variation-settings:normal;fill:url(#linearGradient27008);fill-opacity:1;stroke:#000000;stroke-width:0.83710648;stroke-linecap:butt;stroke-linejoin:round;stroke-miterlimit:4;stroke-dasharray:none;stroke-dashoffset:0;stroke-opacity:1;stop-color:#000000;stop-opacity:1">
		<path
   d="m 57.379781,-244.72421 h -98.78621 c 0,0 5.53186,-23.03449 21.96302,-77.98359 -42.55661,71.23293 -132.707821,100.1037 -132.707821,100.1037 H 57.379781 Z"
   id="path2-1-8-2"
   style="font-variation-settings:normal;fill:url(#linearGradient4477);fill-opacity:1;stroke:#000000;stroke-width:5.14825631;stroke-linecap:butt;stroke-linejoin:round;stroke-miterlimit:4;stroke-dasharray:none;stroke-dashoffset:0;stroke-opacity:1;stop-color:#000000;stop-opacity:1"
   sodipodi:nodetypes="cccccc" />
	</g>
</g><g
     id="g6-4-8-2"
     transform="matrix(-1.1945495,0,0,-1.1945495,-253.54788,120.0377)"
     style="font-variation-settings:normal;opacity:1;fill:url(#linearGradient27030);fill-opacity:1;stroke:#000000;stroke-width:0.8371069;stroke-linecap:butt;stroke-linejoin:round;stroke-miterlimit:4;stroke-dasharray:none;stroke-dashoffset:0;stroke-opacity:1;stop-color:#000000;stop-opacity:1">
	<g
   id="g4-4-2-3"
   style="font-variation-settings:normal;fill:url(#linearGradient27030);fill-opacity:1;stroke:#000000;stroke-width:0.8371069;stroke-linecap:butt;stroke-linejoin:round;stroke-miterlimit:4;stroke-dasharray:none;stroke-dashoffset:0;stroke-opacity:1;stop-color:#000000;stop-opacity:1">
		<path
   d="m 57.379935,-9.3713356 h -98.78614 c 0,0 5.53186,-23.0344904 21.96302,-77.9835904 -42.55661,71.23293 -132.707995,100.1037 -132.707995,100.1037 H 57.379935 Z"
   id="path2-1-8-6"
   style="font-variation-settings:normal;fill:url(#linearGradient4475);fill-opacity:1;stroke:#000000;stroke-width:5.14825889;stroke-linecap:butt;stroke-linejoin:round;stroke-miterlimit:4;stroke-dasharray:none;stroke-dashoffset:0;stroke-opacity:1;stop-color:#000000;stop-opacity:1"
   sodipodi:nodetypes="cccccc" />
	</g>
</g></g></svg>
