<?xml version="1.0" encoding="UTF-8" standalone="no"?>
<!-- Uploaded to: SVG Repo, www.svgrepo.com, Generator: SVG Repo Mixer Tools -->

<svg
   fill="#000000"
   version="1.1"
   id="Capa_1"
   width="800"
   height="800"
   viewBox="0 0 507.177 507.17701"
   xml:space="preserve"
   sodipodi:docname="openfile.svg"
   inkscape:version="1.2 (dc2aedaf03, 2022-05-15)"
   xmlns:inkscape="http://www.inkscape.org/namespaces/inkscape"
   xmlns:sodipodi="http://sodipodi.sourceforge.net/DTD/sodipodi-0.dtd"
   xmlns="http://www.w3.org/2000/svg"
   xmlns:svg="http://www.w3.org/2000/svg"><defs
   id="defs199" /><sodipodi:namedview
   id="namedview197"
   pagecolor="#ffffff"
   bordercolor="#666666"
   borderopacity="1.0"
   inkscape:showpageshadow="2"
   inkscape:pageopacity="0.0"
   inkscape:pagecheckerboard="true"
   inkscape:deskcolor="#d1d1d1"
   showgrid="false"
   inkscape:zoom="0.65186405"
   inkscape:cx="-125.7931"
   inkscape:cy="448.71319"
   inkscape:window-width="3596"
   inkscape:window-height="2126"
   inkscape:window-x="233"
   inkscape:window-y="-11"
   inkscape:window-maximized="1"
   inkscape:current-layer="Capa_1" />
<path
   id="rect5821"
   style="fill:#cccccc;fill-opacity:1;stroke-width:0.508321"
   d="m 43.955208,92.581935 89.402072,-0.409803 20.82044,53.819328 243.36597,0.36089 2.02242,266.68674 -354.936755,0.72176 z"
   sodipodi:nodetypes="ccccccc" /><g
   id="g194"
   style="fill:#000000"
   transform="matrix(0.98029102,0,0,1.049517,-168.88548,-460.1845)">
	<path
   id="path192"
   style="fill:#000000;fill-opacity:1"
   d="m 600.87006,732.12338 -23.52634,0.0248 -342.85469,0.36272 -24.01251,0.026 z"
   sodipodi:nodetypes="ccccc" /><path
   id="path31641"
   style="fill:#000000;fill-opacity:1"
   d="m 216.75365,521.22891 c -3.218,0 -6.31092,1.28329 -8.58691,3.57029 -2.27,2.288 -3.53558,5.37933 -3.51758,8.60632 l 0.23003,67.33535 -0.26236,229.03063 20.90494,-0.026 V 600.67526 l -0.0124,-60.0434 h 76.99155 l 20.19412,44.26498 c 1.791,4.69 6.2872,7.79546 11.3112,7.79546 h 237.16053 c 1.28799,0 2.34007,2.34099 2.34007,2.34099 l 0.10818,111.65941 22.30557,-0.0248 -0.0347,-105.92707 c 0.31988,-14.63753 -9.9573,-26.55185 -24.59829,-26.55185 H 339.36268 l -17.20739,-45.16713 c -1.791,-4.68999 -6.28969,-7.79298 -11.31368,-7.79298 z"
   sodipodi:nodetypes="ccccccccccssccccscccc" />
</g><ellipse
   style="fill:#ffffff;fill-opacity:1;stroke-width:9.50957;stroke-linecap:square;paint-order:stroke markers fill"
   id="path6669"
   cx="218.58092"
   cy="225.50446"
   rx="42.549122"
   ry="38.658916" /><ellipse
   style="fill:#ffffff;fill-opacity:1;stroke-width:9.50957;stroke-linecap:square;paint-order:stroke markers fill"
   id="path6827"
   cx="274.50262"
   cy="280.45361"
   rx="30.392231"
   ry="31.851055" /><g
   style="fill:none"
   id="g2590"
   transform="matrix(17.913077,0,0,19.09424,-1.0095716,-30.92009)"><path
     style="fill:#ffffff;fill-opacity:1;stroke:#ffffff;stroke-width:15.3406;stroke-linejoin:bevel;stroke-dasharray:none;stroke-opacity:1;paint-order:stroke markers fill"
     d="M 282.26744,464.05381 V 282.26744 h 165.67871 165.67872 v 181.80998 181.80997 l -9.28153,-0.21537 -9.28152,-0.21536 -51.24322,-89.22449 c -28.18376,-49.07346 -51.41147,-89.39274 -51.61711,-89.59838 -0.20564,-0.20564 -17.86565,27.60902 -39.24447,61.81037 -27.3945,43.82509 -39.15486,62.01227 -39.83346,61.60174 -0.52959,-0.32038 -10.70416,-9.38419 -22.61016,-20.1418 -11.90599,-10.75762 -21.94765,-19.5593 -22.3148,-19.5593 -0.97484,0 -14.77971,14.96608 -27.23944,29.5307 -17.13674,20.03174 -34.16968,41.56189 -47.78662,60.4037 -3.96076,5.48051 -4.06872,5.56097 -7.462,5.56097 h -3.4431 z m 123.67728,9.0382 c 7.56579,-2.83819 13.21931,-6.47108 18.9234,-12.15995 6.02778,-6.0117 10.11638,-12.69594 12.86953,-21.03973 1.75305,-5.31285 2.02474,-7.42282 2.02474,-15.72414 0,-8.30132 -0.27169,-10.41129 -2.02474,-15.72414 -4.5787,-13.87636 -13.5753,-24.45862 -25.93662,-30.50799 -8.39778,-4.10969 -13.87518,-5.38471 -23.03662,-5.36239 -8.60123,0.0209 -13.28026,1.13913 -21.74004,5.1954 -37.88872,18.16677 -38.26983,73.91838 -0.63283,92.57465 8.99176,4.45713 12.72844,5.21166 24.4108,4.9292 8.414,-0.20344 10.77904,-0.54407 15.14238,-2.18091 z"
     id="path4228"
     transform="scale(0.03125)" /><path
     d="m 19.5,20.5 h -11 v -12 h 11 z"
     stroke="#121923"
     stroke-width="1.2"
     id="path2"
     style="stroke:#000000;stroke-width:0.625;stroke-dasharray:none;stroke-opacity:1"
     sodipodi:nodetypes="ccccc" /><path
     style="fill:none;stroke:#000000;stroke-width:0.625;stroke-linecap:butt;stroke-linejoin:miter;stroke-dasharray:none;stroke-opacity:1"
     d="m 9.2861776,20.398972 c 1.1362674,-1.603659 2.2371654,-2.762739 2.2371654,-2.762739 l 1.481915,1.337666 2.358007,-3.772661 3.00891,5.238539 z"
     id="path2509"
     sodipodi:nodetypes="cccccc" /><path
     style="fill:none;stroke:#000000;stroke-width:0.625;stroke-linecap:butt;stroke-linejoin:miter;stroke-dasharray:none;stroke-opacity:1"
     d="M 12.100224,20.444753 13.81503,17.707789"
     id="path2576-5"
     sodipodi:nodetypes="cc" /><path
     id="path2630"
     style="stroke:#000000;stroke-width:0.3125;stroke-linejoin:bevel;paint-order:stroke markers fill"
     d="m 13.586336,13.254237 a 1.4253198,1.4507434 0 0 1 -1.42532,1.450744 1.4253198,1.4507434 0 0 1 -1.425319,-1.450744 1.4253198,1.4507434 0 0 1 1.425319,-1.450743 1.4253198,1.4507434 0 0 1 1.42532,1.450743 z" /><path
     style="fill:#000000;fill-opacity:1;stroke:#000000;stroke-width:21.6949;stroke-linejoin:bevel;stroke-dasharray:none;stroke-opacity:1;paint-order:stroke markers fill"
     d="m 325.60007,632.13559 c 12.30811,-15.84571 20.01801,-25.31334 32.2355,-39.58465 11.13082,-13.00196 11.41493,-13.24006 13.59099,-11.38983 3.20709,2.7269 25.65741,22.90489 28.73969,25.83078 l 2.60693,2.47466 -10.18892,16.35147 -10.18891,16.35147 h -32.29454 -32.29454 z"
     id="path2723"
     transform="scale(0.03125)" /></g><path
   d="m 392.7902,418.89252 67.30264,-117.40318 c 5.59405,-7.13407 -2.54384,-11.64625 -17.17167,-11.38533 l -72.00613,1.28435 -229.92471,0.004 c -9.48648,0 -16.99841,7.33037 -21.74463,13.63295 l -71.792801,105.2796"
   style="fill:#ffffff;fill-opacity:1;stroke:none;stroke-width:15.4579;stroke-linecap:round;stroke-linejoin:round;stroke-dasharray:none;stroke-opacity:1"
   id="path4839-7"
   sodipodi:nodetypes="ccscccc" /><path
   d="m 39.802972,411.82399 366.166208,-0.6302 60.16963,-112.11718 c 5.42995,-7.13408 -2.46403,-11.38534 -16.66795,-11.38534 h -91.61567 l -223.17988,0.004 c -9.20816,0 -16.49972,7.33039 -21.10671,13.63298 L 43.881819,406.60799"
   style="fill:none;fill-opacity:1;stroke:#000000;stroke-width:15.2295;stroke-linecap:round;stroke-linejoin:round;stroke-dasharray:none;stroke-opacity:1"
   id="path4839"
   sodipodi:nodetypes="cccscccc" />
</svg>
