<?xml version="1.0" encoding="UTF-8" standalone="no"?>
<!-- Uploaded to: SVG Repo, www.svgrepo.com, Generator: SVG Repo Mixer Tools -->

<svg
   fill="#000000"
   version="1.1"
   id="Capa_1"
   width="1000"
   height="730"
   viewBox="0 0 633.97125 462.79901"
   xml:space="preserve"
   sodipodi:docname="openfile.svg"
   inkscape:version="1.2 (dc2aedaf03, 2022-05-15)"
   xmlns:inkscape="http://www.inkscape.org/namespaces/inkscape"
   xmlns:sodipodi="http://sodipodi.sourceforge.net/DTD/sodipodi-0.dtd"
   xmlns:xlink="http://www.w3.org/1999/xlink"
   xmlns="http://www.w3.org/2000/svg"
   xmlns:svg="http://www.w3.org/2000/svg"><defs
   id="defs199"><linearGradient
     inkscape:collect="always"
     id="linearGradient2658"><stop
       style="stop-color:#ffdc00;stop-opacity:1;"
       offset="0.35474005"
       id="stop2654" /><stop
       style="stop-color:#ff6500;stop-opacity:1;"
       offset="1"
       id="stop2656" /></linearGradient><linearGradient
     inkscape:collect="always"
     id="linearGradient8924"><stop
       style="stop-color:#00800f;stop-opacity:1;"
       offset="0.48929664"
       id="stop8920" /><stop
       style="stop-color:#0070ca;stop-opacity:1;"
       offset="0.58409786"
       id="stop8922" /></linearGradient><linearGradient
     inkscape:collect="always"
     id="linearGradient5827"><stop
       style="stop-color:#e0e0e0;stop-opacity:1;"
       offset="0"
       id="stop5823" /><stop
       style="stop-color:#484848;stop-opacity:1;"
       offset="1"
       id="stop5825" /></linearGradient><linearGradient
     inkscape:collect="always"
     id="linearGradient2982"><stop
       style="stop-color:#aeaeae;stop-opacity:1;"
       offset="0"
       id="stop2978" /><stop
       style="stop-color:#ffffff;stop-opacity:1;"
       offset="0.89296639"
       id="stop2980" /></linearGradient><linearGradient
     inkscape:collect="always"
     xlink:href="#linearGradient2982"
     id="linearGradient2984"
     x1="238.63107"
     y1="95.589973"
     x2="237.94337"
     y2="420.18326"
     gradientUnits="userSpaceOnUse" /><linearGradient
     inkscape:collect="always"
     xlink:href="#linearGradient5827"
     id="linearGradient5829"
     x1="161.26509"
     y1="110.02589"
     x2="163.87059"
     y2="476.2879"
     gradientUnits="userSpaceOnUse"
     gradientTransform="matrix(0.92689531,0,0,0.67415731,97.173899,120.63992)" /><linearGradient
     inkscape:collect="always"
     xlink:href="#linearGradient8924"
     id="linearGradient8926"
     x1="201.23668"
     y1="268.29968"
     x2="199.1004"
     y2="26.917822"
     gradientUnits="userSpaceOnUse"
     gradientTransform="matrix(1.1528643,-0.57703852,0.57703852,1.1528643,3.9439242,138.17277)" /><radialGradient
     inkscape:collect="always"
     xlink:href="#linearGradient2658"
     id="radialGradient2660"
     cx="179.67982"
     cy="138.78029"
     fx="179.67982"
     fy="138.78029"
     r="48.788147"
     gradientTransform="matrix(1.7152583,2.6321203e-8,-2.5259711e-8,1.6460846,-113.55424,60.512753)"
     gradientUnits="userSpaceOnUse" /><linearGradient
     inkscape:collect="always"
     xlink:href="#linearGradient2982-2"
     id="linearGradient4863"
     gradientUnits="userSpaceOnUse"
     x1="238.63107"
     y1="95.589973"
     x2="237.94337"
     y2="420.18326"
     gradientTransform="translate(84.593722,40.464229)" /><linearGradient
     inkscape:collect="always"
     id="linearGradient2982-2"><stop
       style="stop-color:#aeaeae;stop-opacity:1;"
       offset="0"
       id="stop2978-8" /><stop
       style="stop-color:#ffffff;stop-opacity:0.97005987;"
       offset="0.89296639"
       id="stop2980-6" /></linearGradient></defs><sodipodi:namedview
   id="namedview197"
   pagecolor="#ffffff"
   bordercolor="#666666"
   borderopacity="1.0"
   inkscape:showpageshadow="2"
   inkscape:pageopacity="0.0"
   inkscape:pagecheckerboard="true"
   inkscape:deskcolor="#d1d1d1"
   showgrid="false"
   inkscape:zoom="0.32593203"
   inkscape:cx="1346.9066"
   inkscape:cy="1744.2287"
   inkscape:window-width="3571"
   inkscape:window-height="2126"
   inkscape:window-x="258"
   inkscape:window-y="-11"
   inkscape:window-maximized="1"
   inkscape:current-layer="Capa_1" />
<path
   id="rect5821"
   style="fill:url(#linearGradient5829);stroke-width:0.501147"
   d="m 101.05772,140.76473 91.19953,-0.39047 21.23903,51.2801 248.25889,0.34385 2.06309,254.10427 -362.07285,0.6877 z"
   sodipodi:nodetypes="ccccccc" /><g
   id="g194"
   style="fill:#ffffff"
   transform="translate(85.584517,40.36088)">
	<path
   d="m 382.237,420.524 c 11.278,0 24.519,-7.294 29.342,-17.236 l 93.815,-177.539 c 5.615,-10.802 -2.548,-17.239 -17.236,-17.239 H 393.42 v -42.421 c 0,-14.641 -11.91,-26.551 -26.551,-26.551 H 134.943 L 117.736,94.371 c -1.791,-4.69 -6.289,-7.793 -11.313,-7.793 H 12.335 c -3.218,0 -6.312,1.283 -8.588,3.57 -2.27,2.288 -3.535,5.379 -3.517,8.606 L 0.46,166.089 0,394.049 C 0,408.69 11.913,420.6 26.554,420.6 M 369.209,208.516 H 162.634 c -9.522,0 -18.527,7.696 -23.291,17.239 L 54.994,396.39 h -28.44 c -1.289,0 -2.344,-1.052 -2.344,-2.341 V 166.024 l -0.012,-55.23 h 73.884 l 17.209,45.164 c 1.791,4.69 6.286,7.796 11.31,7.796 H 366.87 c 1.288,0 2.34,1.052 2.34,2.341 v 42.421 z"
   id="path192"
   style="fill:url(#linearGradient2984);fill-opacity:1" />
</g><path
   id="rect8138"
   style="fill:url(#linearGradient8926);fill-opacity:1;stroke-width:1.01992"
   d="M 125.38049,114.1271 310.11635,19.308523 409.76345,34.782568 510.95123,243.55171 C 332.63194,283.59141 274.80986,207.53166 267.44065,392.55688 Z"
   sodipodi:nodetypes="cccccc" />
<path
   style="fill:#000000;fill-opacity:1;stroke-width:0.883931"
   d="M 351.02536,54.859787 380.3035,40.205322 337.43571,27.709058 Z"
   id="path1765"
   sodipodi:nodetypes="cccc" /><ellipse
   style="fill:url(#radialGradient2660);fill-opacity:1;stroke:#000000;stroke-width:5.46723;stroke-dasharray:none;stroke-dashoffset:0;stroke-opacity:1"
   id="path2652"
   cx="194.6414"
   cy="289.88934"
   rx="77.987259"
   ry="75.479607"
   transform="rotate(-26.589154)" /><path
   style="fill:#000000;fill-opacity:1;stroke-width:0.883931"
   d="M 256.91936,420.68209 C 219.61137,348.08382 110.78933,128.72914 110.78933,128.72914 c -5.52969,-11.04779 0.50789,-25.29693 13.4448,-31.772197 L 312.17679,2.8867748 c 3.01066,-1.506913 6.42059,-1.869732 9.4009,-0.997693 l 88.95054,25.9078212 c 2.67001,0.784488 4.80224,2.493695 5.95372,4.794224 L 523.41011,248.17661 500.76136,264.65773 403.07564,55.056082 c -1.16131,-2.302882 -4.28717,-3.081077 -6.99402,-1.72623 l -46.506,23.27746 c -5.4428,2.724261 -11.75565,1.170166 -14.07541,-3.464463 L 313.21805,28.625352 c -1.15476,-2.307102 -4.28717,-3.081087 -6.99403,-1.726242 l -173.55945,86.87101 c -2.07357,1.03787 -3.04092,3.32158 -2.15621,5.08913 L 267.44963,392.454 265.3968,426.03914 c -10e-4,-0.005 -4.70177,1.9918 -8.47744,-5.35705 z"
   id="path7760"
   sodipodi:nodetypes="ccssccscccsssscccccc" /><path
   d="m 466.83073,460.98824 c 11.27799,0 24.519,-7.294 29.34199,-17.236 l 93.81502,-177.539 c 5.615,-10.802 -2.54801,-17.239 -17.236,-17.239 h -94.738 l -230.78602,0.006 c -9.522,0 -18.527,7.696 -23.291,17.239 l -84.349,170.63501"
   style="fill:url(#linearGradient4863);fill-opacity:1;stroke-width:1"
   id="path4839"
   sodipodi:nodetypes="cccscccc" /></svg>
