<?xml version="1.0" encoding="UTF-8" standalone="no"?>
<!-- Generator: Adobe Illustrator 24.1.0, SVG Export Plug-In . SVG Version: 6.00 Build 0)  -->

<svg
   version="1.1"
   id="Layer_1"
   x="0px"
   y="0px"
   viewBox="0 0 800 800"
   xml:space="preserve"
   sodipodi:docname="PS_raw.svg"
   width="800"
   height="800"
   inkscape:version="1.3.2 (091e20e, 2023-11-25, custom)"
   xmlns:inkscape="http://www.inkscape.org/namespaces/inkscape"
   xmlns:sodipodi="http://sodipodi.sourceforge.net/DTD/sodipodi-0.dtd"
   xmlns="http://www.w3.org/2000/svg"
   xmlns:svg="http://www.w3.org/2000/svg"><defs
   id="defs3" /><sodipodi:namedview
   id="namedview3"
   pagecolor="#ffffff"
   bordercolor="#000000"
   borderopacity="0.25"
   inkscape:showpageshadow="2"
   inkscape:pageopacity="0.0"
   inkscape:pagecheckerboard="0"
   inkscape:deskcolor="#d1d1d1"
   inkscape:zoom="0.17828761"
   inkscape:cx="-4947.0628"
   inkscape:cy="1060.0849"
   inkscape:window-width="3511"
   inkscape:window-height="2126"
   inkscape:window-x="318"
   inkscape:window-y="-11"
   inkscape:window-maximized="1"
   inkscape:current-layer="Layer_1" />
<style
   type="text/css"
   id="style1">
	.st0{fill:#001E36;}
	.st1{fill:#31A8FF;}
</style>
<g
   id="Layer_2_1_"
   transform="matrix(2.6833333,0,0,2.7521368,20,20)">
	<g
   id="Surfaces">
		<g
   id="Photo_Surface">
			<g
   id="Outline_no_shadow">
				<path
   class="st0"
   d="m 42.5,0 h 155 C 221,0 240,19 240,42.5 v 149 C 240,215 221,234 197.5,234 H 42.5 C 19,234 0,215 0,191.5 V 42.5 C 0,19 19,0 42.5,0 Z"
   id="path1"
   style="fill:#3d89c2;fill-opacity:1" />
			</g>
		</g>
	</g>
	<g
   id="Outlined_Mnemonics_Logos">
		<g
   id="Ps">
			<path
   class="st1"
   d="M 54,164.1 V 61.2 c 0,-0.7 0.3,-1.1 1,-1.1 1.7,0 3.3,0 5.6,-0.1 2.4,-0.1 4.9,-0.1 7.6,-0.2 2.7,-0.1 5.6,-0.1 8.7,-0.2 3.1,-0.1 6.1,-0.1 9.1,-0.1 8.2,0 15,1 20.6,3.1 5,1.7 9.6,4.5 13.4,8.2 3.2,3.2 5.7,7.1 7.3,11.4 1.5,4.2 2.3,8.5 2.3,13 0,8.6 -2,15.7 -6,21.3 -4,5.6 -9.6,9.8 -16.1,12.2 -6.8,2.5 -14.3,3.4 -22.5,3.4 -2.4,0 -4,0 -5,-0.1 -1,-0.1 -2.4,-0.1 -4.3,-0.1 V 164 c 0.1,0.7 -0.4,1.3 -1.1,1.4 -0.1,0 -0.2,0 -0.4,0 h -19 C 54.4,165.4 54,165 54,164.1 Z M 75.8,79.4 V 113 c 1.4,0.1 2.7,0.2 3.9,0.2 H 85 c 3.9,0 7.8,-0.6 11.5,-1.8 3.2,-0.9 6,-2.8 8.2,-5.3 2.1,-2.5 3.1,-5.9 3.1,-10.3 0.1,-3.1 -0.7,-6.2 -2.3,-8.9 -1.7,-2.6 -4.1,-4.6 -7,-5.7 -3.7,-1.5 -7.7,-2.1 -11.8,-2 -2.6,0 -4.9,0 -6.8,0.1 -2,-0.1 -3.4,0 -4.1,0.1 z"
   id="path2"
   style="fill:#b7d3e7;fill-opacity:1" />
			<path
   class="st1"
   d="m 192,106.9 c -3,-1.6 -6.2,-2.7 -9.6,-3.4 -3.7,-0.8 -7.4,-1.3 -11.2,-1.3 -2,-0.1 -4.1,0.2 -6,0.7 -1.3,0.3 -2.4,1 -3.1,2 -0.5,0.8 -0.8,1.8 -0.8,2.7 0,0.9 0.4,1.8 1,2.6 0.9,1.1 2.1,2 3.4,2.7 2.3,1.2 4.7,2.3 7.1,3.3 5.4,1.8 10.6,4.3 15.4,7.3 3.3,2.1 6,4.9 7.9,8.3 1.6,3.2 2.4,6.7 2.3,10.3 0.1,4.7 -1.3,9.4 -3.9,13.3 -2.8,4 -6.7,7.1 -11.2,8.9 -4.9,2.1 -10.9,3.2 -18.1,3.2 -4.6,0 -9.1,-0.4 -13.6,-1.3 -3.5,-0.6 -7,-1.7 -10.2,-3.2 -0.7,-0.4 -1.2,-1.1 -1.1,-1.9 v -17.4 c 0,-0.3 0.1,-0.7 0.4,-0.9 0.3,-0.2 0.6,-0.1 0.9,0.1 3.9,2.3 8,3.9 12.4,4.9 3.8,1 7.8,1.5 11.8,1.5 3.8,0 6.5,-0.5 8.3,-1.4 1.6,-0.7 2.7,-2.4 2.7,-4.2 0,-1.4 -0.8,-2.7 -2.4,-4 -1.6,-1.3 -4.9,-2.8 -9.8,-4.7 -5.1,-1.8 -9.8,-4.2 -14.2,-7.2 -3.1,-2.2 -5.7,-5.1 -7.6,-8.5 -1.6,-3.2 -2.4,-6.7 -2.3,-10.2 0,-4.3 1.2,-8.4 3.4,-12.1 2.5,-4 6.2,-7.2 10.5,-9.2 4.7,-2.4 10.6,-3.5 17.7,-3.5 4.1,0 8.3,0.3 12.4,0.9 3,0.4 5.9,1.2 8.6,2.3 0.4,0.1 0.8,0.5 1,0.9 0.1,0.4 0.2,0.8 0.2,1.2 v 16.3 c 0,0.4 -0.2,0.8 -0.5,1 -0.9,0.2 -1.4,0.2 -1.8,0 z"
   id="path3"
   style="fill:#b7d3e7;fill-opacity:1" />
		</g>
	</g>
</g>
<g
   style="fill:none"
   id="g2590"
   transform="matrix(29.987336,0,0,29.987336,183.14709,151.41935)"><path
     style="fill:#cccccc;fill-opacity:0.5;stroke:#ffffff;stroke-width:15.3406;stroke-linejoin:bevel;stroke-dasharray:none;stroke-opacity:1;paint-order:stroke markers fill"
     d="M 282.26744,464.05381 V 282.26744 h 165.67871 165.67872 v 181.80998 181.80997 l -9.28153,-0.21537 -9.28152,-0.21536 -51.24322,-89.22449 c -28.18376,-49.07346 -51.41147,-89.39274 -51.61711,-89.59838 -0.20564,-0.20564 -17.86565,27.60902 -39.24447,61.81037 -27.3945,43.82509 -39.15486,62.01227 -39.83346,61.60174 -0.52959,-0.32038 -10.70416,-9.38419 -22.61016,-20.1418 -11.90599,-10.75762 -21.94765,-19.5593 -22.3148,-19.5593 -0.97484,0 -14.77971,14.96608 -27.23944,29.5307 -17.13674,20.03174 -34.16968,41.56189 -47.78662,60.4037 -3.96076,5.48051 -4.06872,5.56097 -7.462,5.56097 h -3.4431 z m 123.67728,9.0382 c 7.56579,-2.83819 13.21931,-6.47108 18.9234,-12.15995 6.02778,-6.0117 10.11638,-12.69594 12.86953,-21.03973 1.75305,-5.31285 2.02474,-7.42282 2.02474,-15.72414 0,-8.30132 -0.27169,-10.41129 -2.02474,-15.72414 -4.5787,-13.87636 -13.5753,-24.45862 -25.93662,-30.50799 -8.39778,-4.10969 -13.87518,-5.38471 -23.03662,-5.36239 -8.60123,0.0209 -13.28026,1.13913 -21.74004,5.1954 -37.88872,18.16677 -38.26983,73.91838 -0.63283,92.57465 8.99176,4.45713 12.72844,5.21166 24.4108,4.9292 8.414,-0.20344 10.77904,-0.54407 15.14238,-2.18091 z"
     id="path4228"
     transform="scale(0.03125)" /><path
     d="m 19.5,20.5 h -11 v -12 h 11 z"
     stroke="#121923"
     stroke-width="1.2"
     id="path2-7"
     style="stroke:#000000;stroke-width:0.625;stroke-dasharray:none;stroke-opacity:0.60000002"
     sodipodi:nodetypes="ccccc" /><path
     style="fill:none;stroke:#000000;stroke-width:0.625;stroke-linecap:butt;stroke-linejoin:miter;stroke-dasharray:none;stroke-opacity:0.5982275"
     d="m 9.2861776,20.398972 c 1.1362674,-1.603659 2.2371654,-2.762739 2.2371654,-2.762739 l 1.481915,1.337666 2.358007,-3.772661 3.00891,5.238539 z"
     id="path2509"
     sodipodi:nodetypes="cccccc" /><path
     style="fill:none;stroke:#000000;stroke-width:0.625;stroke-linecap:butt;stroke-linejoin:miter;stroke-dasharray:none;stroke-opacity:0"
     d="M 12.100224,20.444753 13.81503,17.707789"
     id="path2576-5"
     sodipodi:nodetypes="cc" /><path
     id="path2630"
     style="stroke:#000000;stroke-width:0.3125;stroke-linejoin:bevel;paint-order:stroke markers fill;stroke-opacity:0.5"
     d="m 13.586336,13.254237 a 1.4253198,1.4507434 0 0 1 -1.42532,1.450744 1.4253198,1.4507434 0 0 1 -1.425319,-1.450744 1.4253198,1.4507434 0 0 1 1.425319,-1.450743 1.4253198,1.4507434 0 0 1 1.42532,1.450743 z" /></g><text
   xml:space="preserve"
   style="font-size:96px;fill:#575757;fill-opacity:1;stroke:none;stroke-width:38.211;stroke-opacity:1;stroke-dasharray:none"
   x="490.80508"
   y="493.77963"
   id="text3"><tspan
     sodipodi:role="line"
     id="tspan3"
     x="490.80508"
     y="493.77963"
     style="font-style:normal;font-variant:normal;font-weight:bold;font-stretch:normal;font-size:96px;font-family:Ebrima;-inkscape-font-specification:Ebrima;stroke:none;stroke-opacity:1;stroke-width:38.211;stroke-dasharray:none;fill:#575757;fill-opacity:1">RAW</tspan></text></svg>
