<?xml version="1.0" encoding="UTF-8" standalone="no"?>
<!-- Uploaded to: SVG Repo, www.svgrepo.com, Generator: SVG Repo Mixer Tools -->

<svg
   fill="#000000"
   version="1.1"
   id="Capa_1"
   width="800px"
   height="800px"
   viewBox="0 0 407.096 407.096"
   xml:space="preserve"
   sodipodi:docname="save.svg"
   inkscape:version="1.2 (dc2aedaf03, 2022-05-15)"
   xmlns:inkscape="http://www.inkscape.org/namespaces/inkscape"
   xmlns:sodipodi="http://sodipodi.sourceforge.net/DTD/sodipodi-0.dtd"
   xmlns="http://www.w3.org/2000/svg"
   xmlns:svg="http://www.w3.org/2000/svg"><defs
   id="defs4616" /><sodipodi:namedview
   id="namedview4614"
   pagecolor="#ffffff"
   bordercolor="#666666"
   borderopacity="1.0"
   inkscape:showpageshadow="2"
   inkscape:pageopacity="0.0"
   inkscape:pagecheckerboard="0"
   inkscape:deskcolor="#d1d1d1"
   showgrid="false"
   inkscape:zoom="0.921875"
   inkscape:cx="754.44068"
   inkscape:cy="325.9661"
   inkscape:window-width="3495"
   inkscape:window-height="2126"
   inkscape:window-x="334"
   inkscape:window-y="-11"
   inkscape:window-maximized="1"
   inkscape:current-layer="Capa_1" />
<path
   style="fill:#ffffff;stroke:#ffffff;stroke-width:21.6949;stroke-linejoin:bevel;paint-order:stroke markers fill"
   d="m 241.8983,273.35593 v -75.9322 h 142.64407 142.64407 v 75.9322 75.93221 H 384.54237 241.8983 Z m 236.87067,56.32805 2.85815,-2.24822 V 273.2772 c 0,-52.71223 -0.0579,-54.21649 -2.16949,-56.32805 -2.06192,-2.06191 -3.61582,-2.16949 -31.33746,-2.16949 -27.10236,0 -29.34932,0.14685 -31.72882,2.07365 l -2.56084,2.07365 v 54.42897 54.42898 l 2.56084,2.07364 c 2.37607,1.92402 4.61585,2.07365 31.04017,2.07365 27.16922,0 28.61077,-0.10337 31.33745,-2.24822 z"
   id="path9454"
   transform="scale(0.50887)" /><g
   id="g4611"
   transform="matrix(0.625,0,0,0.625,80.591208,75.899254)">
	<g
   id="g4609">
		<path
   d="M 402.115,84.008 323.088,4.981 C 319.899,1.792 315.574,0 311.063,0 H 17.005 C 7.613,0 0,7.614 0,17.005 v 373.086 c 0,9.392 7.613,17.005 17.005,17.005 h 373.086 c 9.392,0 17.005,-7.613 17.005,-17.005 V 96.032 c 0,-4.509 -1.791,-8.835 -4.981,-12.024 z M 300.664,163.567 H 67.129 V 38.862 h 233.535 z"
   id="path4605" />
		<path
   d="m 214.051,148.16 h 43.08 c 3.131,0 5.668,-2.538 5.668,-5.669 V 59.584 c 0,-3.13 -2.537,-5.668 -5.668,-5.668 h -43.08 c -3.131,0 -5.668,2.538 -5.668,5.668 v 82.907 c 0,3.131 2.537,5.669 5.668,5.669 z"
   id="path4607" />
	</g>
</g>
</svg>
