<?xml version="1.0" encoding="UTF-8" standalone="no"?>
<!-- Uploaded to: SVG Repo, www.svgrepo.com, Generator: SVG Repo Mixer Tools -->

<svg
   height="800px"
   width="800px"
   version="1.1"
   id="Layer_1"
   viewBox="0 0 511.999 511.999"
   xml:space="preserve"
   sodipodi:docname="star.svg"
   inkscape:version="1.3.2 (091e20e, 2023-11-25, custom)"
   xmlns:inkscape="http://www.inkscape.org/namespaces/inkscape"
   xmlns:sodipodi="http://sodipodi.sourceforge.net/DTD/sodipodi-0.dtd"
   xmlns="http://www.w3.org/2000/svg"
   xmlns:svg="http://www.w3.org/2000/svg"><defs
   id="defs6" /><sodipodi:namedview
   id="namedview6"
   pagecolor="#ffffff"
   bordercolor="#666666"
   borderopacity="1.0"
   inkscape:showpageshadow="2"
   inkscape:pageopacity="0.0"
   inkscape:pagecheckerboard="0"
   inkscape:deskcolor="#d1d1d1"
   inkscape:zoom="0.5875"
   inkscape:cx="133.61702"
   inkscape:cy="1380.4255"
   inkscape:window-width="3357"
   inkscape:window-height="2126"
   inkscape:window-x="472"
   inkscape:window-y="-11"
   inkscape:window-maximized="1"
   inkscape:current-layer="Layer_1" />
<path
   style="fill:#aeae21;fill-opacity:1;stroke-width:3.19999375;stroke-dasharray:none;stroke:#000000;stroke-opacity:1"
   d="m 267.893,19.375998 c -2.193,-4.578 -6.819,-7.492 -11.895,-7.492 -5.077,0 -9.702,2.914 -11.895,7.492 L 173.488,166.813 11.446,188.412 c -5.032,0.67 -9.232,4.17 -10.801,8.998 -1.569,4.828 -0.227,10.128 3.45,13.629 L 122.491,323.758 92.959,484.543 c -0.917,4.993 1.113,10.069 5.22,13.053 4.107,2.984 9.563,3.346 14.028,0.931 l 143.79,-77.772 143.79,77.772 c 4.465,2.415 9.92,2.053 14.028,-0.931 4.107,-2.984 6.137,-8.06 5.22,-13.053 l -29.532,-160.786 118.4,-112.72 c 3.677,-3.501 5.019,-8.801 3.45,-13.629 -1.569,-4.828 -5.769,-8.328 -10.801,-8.998 L 338.51,166.811 Z"
   id="path1" />
<g
   id="g4"
   transform="matrix(-1,0,0,1,511.998,0)"
   style="stroke-width:3.19999375;stroke-dasharray:none;stroke:#000000;stroke-opacity:1">
	<path
   style="fill:#6e6e18;fill-opacity:1;stroke-width:3.19999375;stroke-dasharray:none;stroke:#000000;stroke-opacity:1"
   d="m 256.001,11.884 c -5.077,0 -9.702,2.914 -11.895,7.492 l -70.615,147.437 82.511,111.445 V 11.884 Z"
   id="path2" />
	<path
   style="fill:#d9d94e;fill-opacity:1;stroke-width:3.19999375;stroke-dasharray:none;stroke:#000000;stroke-opacity:1"
   d="m 511.313,197.294 c -1.598,-4.768 -5.768,-8.217 -10.759,-8.882 L 338.511,166.813 256,278.258 Z"
   id="path3" />
	<path
   style="fill:#d9d94e;fill-opacity:1;stroke-width:3.19999375;stroke-dasharray:none;stroke:#000000;stroke-opacity:1"
   d="m 413.877,497.55 c 4.066,-2.99 6.073,-8.038 5.161,-13.007 L 389.506,323.758 256,278.258 Z"
   id="path4" />
</g>
<g
   id="g6"
   transform="matrix(-1,0,0,1,511.998,0)"
   style="stroke-width:3.19999375;stroke-dasharray:none;stroke:#000000;stroke-opacity:1">
	<path
   style="fill:#54541f;fill-opacity:1;stroke-width:3.19999375;stroke-dasharray:none;stroke:#000000;stroke-opacity:1"
   d="m 0.689,197.294 c -0.013,0.039 -0.03,0.076 -0.042,0.116 -1.569,4.828 -0.228,10.128 3.45,13.629 l 118.399,112.719 133.505,-45.499 z"
   id="path5" />
	<path
   style="fill:#6e6e41;fill-opacity:1;stroke-width:3.19999375;stroke-dasharray:none;stroke:#000000;stroke-opacity:1"
   d="m 98.124,497.55 c 0.02,0.014 0.039,0.032 0.059,0.046 4.107,2.984 9.563,3.346 14.028,0.931 l 143.79,-77.772 V 278.258 Z"
   id="path6" />
</g>
</svg>
