<?xml version="1.0" encoding="UTF-8" standalone="no"?>
<!-- Uploaded to: SVG Repo, www.svgrepo.com, Generator: SVG Repo Mixer Tools -->

<svg
   version="1.1"
   id="Layer_1"
   viewBox="0 0 800.00001 800.00001"
   xml:space="preserve"
   sodipodi:docname="trash.svg"
   width="800"
   height="800"
   inkscape:version="1.2 (dc2aedaf03, 2022-05-15)"
   xmlns:inkscape="http://www.inkscape.org/namespaces/inkscape"
   xmlns:sodipodi="http://sodipodi.sourceforge.net/DTD/sodipodi-0.dtd"
   xmlns:xlink="http://www.w3.org/1999/xlink"
   xmlns="http://www.w3.org/2000/svg"
   xmlns:svg="http://www.w3.org/2000/svg"><defs
   id="defs278"><linearGradient
     inkscape:collect="always"
     id="linearGradient1171"><stop
       style="stop-color:#b0b2b2;stop-opacity:1;"
       offset="0"
       id="stop1169" /><stop
       style="stop-color:#4d4d4d;stop-opacity:1;"
       offset="1"
       id="stop1167" /></linearGradient><linearGradient
     inkscape:collect="always"
     id="linearGradient1163"><stop
       style="stop-color:#cccccc;stop-opacity:1;"
       offset="0"
       id="stop1159" /><stop
       style="stop-color:#333333;stop-opacity:1;"
       offset="1"
       id="stop1161" /></linearGradient><linearGradient
     inkscape:collect="always"
     id="linearGradient1155"><stop
       style="stop-color:#4d4d4d;stop-opacity:1;"
       offset="0"
       id="stop1151" /><stop
       style="stop-color:#b2b2b2;stop-opacity:1;"
       offset="1"
       id="stop1153" /></linearGradient><linearGradient
     inkscape:collect="always"
     id="linearGradient1145"><stop
       style="stop-color:#4d4d4d;stop-opacity:1;"
       offset="0"
       id="stop1143" /><stop
       style="stop-color:#b2b2b2;stop-opacity:1;"
       offset="1"
       id="stop1141" /></linearGradient><linearGradient
     inkscape:collect="always"
     id="linearGradient1137"><stop
       style="stop-color:#4d4d4d;stop-opacity:1;"
       offset="0"
       id="stop1133" /><stop
       style="stop-color:#b2b2b2;stop-opacity:1;"
       offset="1"
       id="stop1135" /></linearGradient><linearGradient
     inkscape:collect="always"
     id="linearGradient1129"><stop
       style="stop-color:#b2b2b2;stop-opacity:1;"
       offset="0"
       id="stop1125" /><stop
       style="stop-color:#4c4d4d;stop-opacity:1;"
       offset="1"
       id="stop1127" /></linearGradient><linearGradient
     inkscape:collect="always"
     xlink:href="#linearGradient1129"
     id="linearGradient1131"
     x1="178.90567"
     y1="446.63558"
     x2="620.90281"
     y2="446.63558"
     gradientUnits="userSpaceOnUse" /><linearGradient
     inkscape:collect="always"
     xlink:href="#linearGradient1137"
     id="linearGradient1139"
     x1="145.19716"
     y1="317.17288"
     x2="196.91731"
     y2="313.7135"
     gradientUnits="userSpaceOnUse" /><linearGradient
     inkscape:collect="always"
     xlink:href="#linearGradient1145"
     id="linearGradient1147"
     x1="236.397"
     y1="313.7135"
     x2="275.601"
     y2="313.7135"
     gradientUnits="userSpaceOnUse" /><linearGradient
     inkscape:collect="always"
     xlink:href="#linearGradient1155"
     id="linearGradient1157"
     x1="314.77777"
     y1="308.6575"
     x2="366.26764"
     y2="313.7135"
     gradientUnits="userSpaceOnUse" /><linearGradient
     inkscape:collect="always"
     xlink:href="#linearGradient1163"
     id="linearGradient1165"
     x1="67.037"
     y1="127.6385"
     x2="444.962"
     y2="127.6385"
     gradientUnits="userSpaceOnUse" /><linearGradient
     inkscape:collect="always"
     xlink:href="#linearGradient1171"
     id="linearGradient1173"
     x1="204.73935"
     y1="153.95269"
     x2="595.07179"
     y2="153.95269"
     gradientUnits="userSpaceOnUse" /></defs><sodipodi:namedview
   id="namedview276"
   pagecolor="#ffffff"
   bordercolor="#666666"
   borderopacity="1.0"
   inkscape:showpageshadow="2"
   inkscape:pageopacity="0.0"
   inkscape:pagecheckerboard="0"
   inkscape:deskcolor="#d1d1d1"
   showgrid="false"
   inkscape:zoom="0.25"
   inkscape:cx="-356"
   inkscape:cy="2582"
   inkscape:window-width="3595"
   inkscape:window-height="2126"
   inkscape:window-x="234"
   inkscape:window-y="-11"
   inkscape:window-maximized="1"
   inkscape:current-layer="Layer_1" />
<path
   style="fill:#a4a9ad;stroke-width:1.32862"
   d="m 612.13923,267.11718 h 46.7302 c 5.62272,0 10.2224,4.59968 10.2224,10.2224 v 21.90495 c 0,5.62271 -4.60101,10.2224 -10.2224,10.2224 h -46.7302 z"
   id="path241" />
<rect
   x="612.13257"
   y="267.11984"
   style="opacity:0.1;stroke-width:1.32862;enable-background:new"
   width="21.782717"
   height="42.348415"
   id="rect243" />
<path
   style="fill:#a4a9ad;stroke-width:1.32862"
   d="M 187.66924,267.11718 H 140.9417 c -5.62272,0 -10.2224,4.59968 -10.2224,10.2224 v 21.90495 c 0,5.62271 4.60101,10.2224 10.2224,10.2224 h 46.72887 v -42.34975 z"
   id="path245" />
<rect
   x="165.89052"
   y="267.11984"
   style="opacity:0.1;stroke-width:1.32862;enable-background:new"
   width="21.781385"
   height="42.348415"
   id="rect247" />


<path
   style="fill:url(#linearGradient1173);stroke-width:1.32862;fill-opacity:1"
   d="m 595.07179,135.93328 c 0,-13.86148 -11.34243,-25.20257 -25.20391,-25.20257 H 229.94326 c -13.86148,0 -25.20391,11.34109 -25.20391,25.20257 v 36.03881 c 0,13.86149 11.34243,25.20258 25.20391,25.20258 h 339.92462 c 13.86148,0 25.20391,-11.34243 25.20391,-25.20258 z"
   id="path253" />

<path
   style="fill:url(#linearGradient1131);stroke-width:1.32862;fill-opacity:1"
   d="m 178.90567,203.99048 22.67544,446.88513 c 1.0704,21.09526 17.28002,38.40508 38.40506,38.40508 h 319.83638 c 21.12371,0 37.3347,-17.30982 38.40507,-38.40508 l 22.67519,-446.88513 z"
   id="path257"
   sodipodi:nodetypes="csssscc" />
<path
   style="opacity:0.1;stroke-width:1.32862;enable-background:new;fill:#b2b2b2;fill-opacity:1"
   d="m 201.58111,629.50477 v 21.37084 c 0,21.1224 17.28002,38.40508 38.40506,38.40508 h 319.83638 c 21.12371,0 38.40507,-17.28268 38.40507,-38.40508 v -21.37084 z"
   id="path259"
   sodipodi:nodetypes="csssscc" />

<g
   id="g271"
   transform="matrix(1.3286194,0,0,1.3286194,59.778996,19.749504)">
	<path
   style="fill:url(#linearGradient1165);fill-opacity:1"
   d="m 444.962,117.87 c 0,-10.434 -8.536,-18.969 -18.969,-18.969 H 86.006 c -10.433,0 -18.969,8.536 -18.969,18.969 v 19.537 c 0,10.433 8.536,18.969 18.969,18.969 h 339.987 c 10.433,0 18.969,-8.536 18.969,-18.969 z"
   id="path263" />
	<path
   style="fill:url(#linearGradient1147);fill-opacity:1;stroke:#000000;stroke-opacity:1;stroke-width:7.52660995;stroke-dasharray:none"
   d="m 255.999,425.306 c -10.826,0 -19.602,-8.776 -19.602,-19.602 v -183.98 c 0,-10.826 8.775,-19.603 19.602,-19.603 10.827,0 19.602,8.776 19.602,19.603 v 183.98 c 0,10.827 -8.775,19.602 -19.602,19.602 z"
   id="path265" />
	<path
   style="fill:url(#linearGradient1139);fill-opacity:1;stroke-width:7.52660995;stroke-dasharray:none;stroke:#000000;stroke-opacity:1"
   d="m 177.31531,425.306 c -10.827,0 -18.90151,-8.79875 -19.603,-19.602 L 145.766,221.724 c -0.70148,-10.80325 8.776,-19.603 19.603,-19.603 10.827,0 18.90045,8.79875 19.602,19.603 l 11.94631,183.98 c -10e-4,10.827 -8.776,19.602 -19.602,19.602 z"
   id="path267"
   sodipodi:nodetypes="ssssscs" />
	<path
   style="fill:url(#linearGradient1157);fill-opacity:1;stroke:#000000;stroke-opacity:1;stroke-width:7.52660995;stroke-dasharray:none"
   d="m 334.68252,425.306 c -10.827,0 -20.3035,-8.79875 -19.602,-19.602 L 327.027,221.724 c 0.70149,-10.80325 8.775,-19.603 19.602,-19.603 10.827,0 20.30356,8.79875 19.602,19.603 l -11.94648,183.98 c -0.70156,10.80425 -8.775,19.602 -19.602,19.602 z"
   id="path269"
   sodipodi:nodetypes="sssssss" />
</g>
<path
   style="fill:#1e252b;stroke-width:1.32862"
   d="m 658.86811,256.39788 h -27.24334 v -18.64983 c 17.02759,-2.8087 30.06001,-17.6268 30.06001,-35.43694 v -25.95723 c 0,-19.80706 -16.11349,-35.92321 -35.92322,-35.92321 h -19.97047 v -4.49739 c 0,-19.80705 -18.98986,-35.92054 -35.92454,-35.92321 -104.16045,-0.01642 -222.167,-0.01 -339.92329,-0.001 -16.93467,0.001 -35.92455,16.11483 -35.92455,35.92321 v 4.49737 h -19.97047 c -19.80706,0 -35.92321,16.11483 -35.92321,35.92322 v 25.95724 c 0,17.81014 13.03242,32.62823 30.06001,35.43694 v 18.64983 H 140.9417 c -11.54703,0 -20.9417,9.39466 -20.9417,20.9417 v 21.90495 c 0,11.54702 9.39467,20.94169 20.9417,20.94169 h 27.246 l 22.67498,330.68939 c 1.85304,27.02447 22.03649,49.12574 49.12572,49.12574 h 319.83667 c 27.0879,0 47.27254,-22.09994 49.1257,-49.12571 l 22.67532,-330.68672 h 27.24334 c 11.54704,0 20.94171,-9.39468 20.94171,-20.9417 v -21.90491 c 0,-11.54837 -9.39601,-20.94303 -20.94303,-20.94303 z m -490.68307,42.35108 h -26.74777 v -20.90982 h 26.74777 z m 47.2736,-162.81568 c 0,-7.985 6.49829,-14.48327 14.48462,-14.48327 h 339.92462 c 7.98633,0 14.4846,6.49694 14.4846,14.48327 v 4.49739 H 215.45864 Z m 372.04955,514.94367 c 0,15.26583 -12.41861,27.68576 -27.68578,27.68576 H 239.98572 c -15.26582,0 -27.68575,-12.41861 -27.68575,-27.68576 V 640.2254 h 375.20822 z m 7.6e-4,-32.09148 H 212.29979 L 189.62497,238.233 H 610.18351 Z M 625.76156,216.7944 H 174.04824 c -7.985,0 -14.48328,-6.49563 -14.48328,-14.48329 v -25.95723 c 0,-7.98501 6.49828,-14.48328 14.48328,-14.48328 h 451.71332 c 7.98501,0 14.48328,6.49827 14.48328,14.48328 v 25.95723 c 0,7.98634 -6.49827,14.48329 -14.48328,14.48329 z m 32.60965,81.95456 h -26.74777 v -20.90982 h 26.74777 z"
   id="path273"
   sodipodi:nodetypes="sccssscsssscsssccsssscsssscsssscccccssssccsssssccscccccsssssssssccccc" />
</svg>
